<svg width="24" height="14" viewBox="0 0 24 14" fill="none" xmlns="http://www.w3.org/2000/svg">
<path d="M22.1053 11.5294C22.5919 11.5296 23.0597 11.6518 23.4119 11.8707C23.764 12.0896 23.9735 12.3885 23.9969 12.7053C24.0203 13.0222 23.8558 13.3328 23.5375 13.5728C23.2192 13.8127 22.7715 13.9636 22.2872 13.9942L22.1053 14H1.89474C1.40815 13.9998 0.940301 13.8776 0.588143 13.6587C0.235985 13.4398 0.0265111 13.1409 0.00312725 12.8241C-0.0202566 12.5072 0.144242 12.1966 0.462537 11.9567C0.780832 11.7167 1.22852 11.5658 1.71284 11.5352L1.89474 11.5294H22.1053ZM22.1053 5.76471C22.6078 5.76471 23.0897 5.89485 23.445 6.12652C23.8004 6.35818 24 6.67238 24 7C24 7.32762 23.8004 7.64182 23.445 7.87349C23.0897 8.10515 22.6078 8.23529 22.1053 8.23529H1.89474C1.39222 8.23529 0.910288 8.10515 0.554956 7.87349C0.199624 7.64182 0 7.32762 0 7C0 6.67238 0.199624 6.35818 0.554956 6.12652C0.910288 5.89485 1.39222 5.76471 1.89474 5.76471H22.1053ZM22.1053 0C22.6078 0 23.0897 0.130147 23.445 0.361809C23.8004 0.593472 24 0.907674 24 1.23529C24 1.56291 23.8004 1.87712 23.445 2.10878C23.0897 2.34044 22.6078 2.47059 22.1053 2.47059H1.89474C1.39222 2.47059 0.910288 2.34044 0.554956 2.10878C0.199624 1.87712 0 1.56291 0 1.23529C0 0.907674 0.199624 0.593472 0.554956 0.361809C0.910288 0.130147 1.39222 0 1.89474 0H22.1053Z" fill="#27174D"/>
</svg>
