<svg width="53" height="46" viewBox="0 0 53 46" fill="none" xmlns="http://www.w3.org/2000/svg">
<path d="M48.8158 37.8824C49.8903 37.8829 50.9235 38.2844 51.7012 39.0037C52.4789 39.723 52.9415 40.705 52.9931 41.7461C53.0447 42.7873 52.6815 43.8078 51.9786 44.5962C51.2757 45.3846 50.287 45.8805 49.2175 45.9811L48.8158 46H4.18421C3.10966 45.9995 2.0765 45.598 1.29882 44.8787C0.521134 44.1593 0.0585454 43.1774 0.00690601 42.1362C-0.0447334 41.0951 0.318535 40.0746 1.02144 39.2862C1.72434 38.4977 2.71299 38.0019 3.78253 37.9013L4.18421 37.8824H48.8158ZM48.8158 18.9412C49.9255 18.9412 50.9898 19.3688 51.7745 20.13C52.5592 20.8912 53 21.9235 53 23C53 24.0765 52.5592 25.1088 51.7745 25.87C50.9898 26.6312 49.9255 27.0588 48.8158 27.0588H4.18421C3.07449 27.0588 2.01022 26.6312 1.22553 25.87C0.440835 25.1088 0 24.0765 0 23C0 21.9235 0.440835 20.8912 1.22553 20.13C2.01022 19.3688 3.07449 18.9412 4.18421 18.9412H48.8158ZM48.8158 0C49.9255 0 50.9898 0.427625 51.7745 1.1888C52.5592 1.94998 53 2.98236 53 4.05882C53 5.13529 52.5592 6.16767 51.7745 6.92885C50.9898 7.69002 49.9255 8.11765 48.8158 8.11765H4.18421C3.07449 8.11765 2.01022 7.69002 1.22553 6.92885C0.440835 6.16767 0 5.13529 0 4.05882C0 2.98236 0.440835 1.94998 1.22553 1.1888C2.01022 0.427625 3.07449 0 4.18421 0H48.8158Z" fill="white"/>
</svg>
