<svg width="13" height="17" viewBox="0 0 13 17" fill="none" xmlns="http://www.w3.org/2000/svg">
<path d="M10.9264 9.49875C10.3696 10.6271 9.61525 11.7513 8.84387 12.7606C8.11133 13.7116 7.32895 14.6231 6.5 15.4913C5.67105 14.6231 4.88867 13.7116 4.15613 12.7606C3.38475 11.7513 2.63038 10.6271 2.07363 9.49875C1.5105 8.35869 1.1875 7.29087 1.1875 6.375C1.1875 4.96604 1.74721 3.61478 2.7435 2.6185C3.73978 1.62221 5.09104 1.0625 6.5 1.0625C7.90896 1.0625 9.26022 1.62221 10.2565 2.6185C11.2528 3.61478 11.8125 4.96604 11.8125 6.375C11.8125 7.29087 11.4884 8.35869 10.9264 9.49875ZM6.5 17C6.5 17 12.875 10.9586 12.875 6.375C12.875 4.68425 12.2034 3.06274 11.0078 1.86719C9.81226 0.67165 8.19075 0 6.5 0C4.80925 0 3.18774 0.67165 1.99219 1.86719C0.79665 3.06274 0.125 4.68425 0.125 6.375C0.125 10.9586 6.5 17 6.5 17Z" fill="#27174D"/>
<path d="M6.5 8.5C5.93641 8.5 5.39591 8.27612 4.9974 7.8776C4.59888 7.47909 4.375 6.93859 4.375 6.375C4.375 5.81141 4.59888 5.27091 4.9974 4.8724C5.39591 4.47388 5.93641 4.25 6.5 4.25C7.06359 4.25 7.60409 4.47388 8.0026 4.8724C8.40112 5.27091 8.625 5.81141 8.625 6.375C8.625 6.93859 8.40112 7.47909 8.0026 7.8776C7.60409 8.27612 7.06359 8.5 6.5 8.5ZM6.5 9.5625C7.34538 9.5625 8.15613 9.22668 8.7539 8.6289C9.35168 8.03113 9.6875 7.22038 9.6875 6.375C9.6875 5.52962 9.35168 4.71887 8.7539 4.1211C8.15613 3.52333 7.34538 3.1875 6.5 3.1875C5.65462 3.1875 4.84387 3.52333 4.2461 4.1211C3.64833 4.71887 3.3125 5.52962 3.3125 6.375C3.3125 7.22038 3.64833 8.03113 4.2461 8.6289C4.84387 9.22668 5.65462 9.5625 6.5 9.5625Z" fill="#27174D"/>
</svg>
