<svg width="126" height="81" viewBox="0 0 126 81" fill="none" xmlns="http://www.w3.org/2000/svg">
<path d="M2.61116 47.6607H12.5429V49.1886H2.61116V47.6607ZM12.8209 41.42V42.9479H2.42586L3.5191 41.8434V55.2268H1.77734V41.42H12.8209ZM25.8958 47.587V49.0598H16.4273V47.587H25.8958ZM17.5205 48.3234L16.4644 54.8034L15.5379 53.7173H26.3961V55.2268H14.6855L15.8344 48.3234L14.6855 41.42H26.3034V42.9295H15.5379L16.4644 41.8434L17.5205 48.3234ZM30.3054 47.9368H36.2719C37.1859 47.9368 37.9149 47.7098 38.4583 47.2557C39.0142 46.8015 39.2922 46.194 39.2922 45.4332C39.2922 44.66 39.0142 44.0525 38.4583 43.6107C37.9149 43.1565 37.1859 42.9295 36.2719 42.9295H30.0645L30.8428 42.0091V55.2268H29.101V41.42H36.3275C37.2663 41.42 38.0878 41.5917 38.7919 41.9354C39.496 42.2668 40.0458 42.7331 40.441 43.3345C40.8486 43.936 41.0525 44.6355 41.0525 45.4332C41.0525 46.2187 40.8486 46.912 40.441 47.5134C40.0458 48.1148 39.496 48.5872 38.7919 48.9309C38.0878 49.2623 37.2663 49.4279 36.3275 49.4279H30.3054V47.9368ZM33.3813 48.7652H35.5307L41.3304 55.2268H39.1625L33.3813 48.7652ZM56.5262 54.3616L55.6738 54.4168V41.42H57.36V55.2268H55.1179L44.5377 42.23L45.39 42.1748V55.2268H43.7038V41.42H45.9644L56.5262 54.3616ZM62.1399 51.8027V50.33H71.9234V51.8027H62.1399ZM68.1249 41.42L74.9622 55.2268H73.0722L66.6425 42.0091H67.569L61.1207 55.2268H59.2307L66.0681 41.42H68.1249ZM89.6764 54.3616L88.8241 54.4168V41.42H90.5102V55.2268H88.2682L77.6879 42.23L78.5402 42.1748V55.2268H76.8541V41.42H79.1146L89.6764 54.3616ZM99.8114 41.42C101.355 41.42 102.714 41.7084 103.888 42.2852C105.061 42.862 105.975 43.672 106.63 44.7152C107.285 45.7461 107.612 46.9488 107.612 48.3234C107.612 49.6857 107.285 50.8883 106.63 51.9316C105.975 52.9625 105.061 53.7725 103.888 54.3616C102.714 54.9383 101.355 55.2268 99.8114 55.2268H93.8635V41.42H99.8114ZM95.6053 54.7666L94.4935 53.6988H99.8856C101.071 53.6988 102.109 53.4719 102.999 53.0177C103.888 52.5636 104.58 51.9316 105.074 51.1216C105.58 50.3116 105.834 49.3788 105.834 48.3234C105.834 47.2433 105.58 46.3045 105.074 45.5068C104.58 44.6968 103.888 44.0648 102.999 43.6107C102.109 43.1565 101.071 42.9295 99.8856 42.9295H94.4935L95.6053 41.8802V54.7666ZM117.208 55.4661C115.664 55.4661 114.299 55.1655 113.113 54.5641C111.939 53.9626 111.025 53.1282 110.371 52.0604C109.716 50.9804 109.389 49.7348 109.389 48.3234C109.389 46.8998 109.716 45.6541 110.371 44.5863C111.025 43.5186 111.939 42.6841 113.113 42.0827C114.299 41.4813 115.664 41.1807 117.208 41.1807C118.752 41.1807 120.111 41.4813 121.284 42.0827C122.458 42.6841 123.372 43.5186 124.027 44.5863C124.681 45.6541 125.009 46.8998 125.009 48.3234C125.009 49.7348 124.681 50.9804 124.027 52.0604C123.372 53.1282 122.458 53.9626 121.284 54.5641C120.111 55.1655 118.752 55.4661 117.208 55.4661ZM117.208 53.9013C118.431 53.9013 119.493 53.6744 120.395 53.2202C121.297 52.7539 121.995 52.1033 122.489 51.2688C122.983 50.4344 123.23 49.4524 123.23 48.3234C123.23 47.182 122.983 46.194 122.489 45.3595C121.995 44.525 121.297 43.8807 120.395 43.4266C119.493 42.9724 118.431 42.7454 117.208 42.7454C115.985 42.7454 114.923 42.9724 114.021 43.4266C113.119 43.8807 112.415 44.525 111.909 45.3595C111.414 46.194 111.167 47.182 111.167 48.3234C111.167 49.4524 111.414 50.4344 111.909 51.2688C112.415 52.1033 113.119 52.7539 114.021 53.2202C114.923 53.6744 115.985 53.9013 117.208 53.9013ZM35.1692 73.8936V72.4209H44.9527V73.8936H35.1692ZM41.1542 63.5109L47.9915 77.3177H46.1015L39.6718 64.1H40.5983L34.1501 77.3177H32.2601L39.0974 63.5109H41.1542ZM50.7159 71.5188C50.7159 72.427 50.9012 73.2186 51.2718 73.8936C51.6548 74.5563 52.1983 75.0718 52.9024 75.44C53.6065 75.8082 54.4342 75.9922 55.3853 75.9922C56.3489 75.9922 57.1766 75.8082 57.8683 75.44C58.56 75.0718 59.0973 74.5563 59.4803 73.8936C59.8633 73.2186 60.0547 72.427 60.0547 71.5188V63.5109H61.7965V71.5557C61.7965 72.7462 61.5247 73.7955 60.9812 74.7036C60.4377 75.5996 59.6842 76.2991 58.7206 76.8023C57.7695 77.3054 56.6577 77.557 55.3853 77.557C54.1129 77.557 52.995 77.3054 52.0315 76.8023C51.068 76.2991 50.3144 75.5996 49.7709 74.7036C49.2397 73.7955 48.9742 72.7462 48.9742 71.5557V63.5109H50.7159V71.5188ZM69.5147 64.3393H71.2565V77.3177H69.5147V64.3393ZM63.5483 63.5109H77.223V65.0388H63.5483V63.5109ZM85.2429 77.557C83.6988 77.557 82.3338 77.2564 81.1479 76.655C79.9744 76.0536 79.0602 75.2191 78.4055 74.1513C77.7509 73.0713 77.4235 71.8257 77.4235 70.4143C77.4235 68.9907 77.7509 67.745 78.4055 66.6773C79.0602 65.6095 79.9744 64.775 81.1479 64.1736C82.3338 63.5722 83.6988 63.2716 85.2429 63.2716C86.7869 63.2716 88.1459 63.5722 89.3194 64.1736C90.4928 64.775 91.4071 65.6095 92.0617 66.6773C92.7163 67.745 93.0438 68.9907 93.0438 70.4143C93.0438 71.8257 92.7163 73.0713 92.0617 74.1513C91.4071 75.2191 90.4928 76.0536 89.3194 76.655C88.1459 77.2564 86.7869 77.557 85.2429 77.557ZM85.2429 75.9922C86.4658 75.9922 87.5281 75.7653 88.4299 75.3111C89.3318 74.8448 90.0296 74.1942 90.5238 73.3597C91.0179 72.5253 91.2649 71.5433 91.2649 70.4143C91.2649 69.2729 91.0179 68.2849 90.5238 67.4504C90.0296 66.6159 89.3318 65.9716 88.4299 65.5175C87.5281 65.0633 86.4658 64.8363 85.2429 64.8363C84.0199 64.8363 82.9576 65.0633 82.0558 65.5175C81.154 65.9716 80.4499 66.6159 79.9435 67.4504C79.4493 68.2849 79.2023 69.2729 79.2023 70.4143C79.2023 71.5433 79.4493 72.5253 79.9435 73.3597C80.4499 74.1942 81.154 74.8448 82.0558 75.3111C82.9576 75.7653 84.0199 75.9922 85.2429 75.9922Z" fill="#27174D"/>
<mask id="mask0_2046_373" style="mask-type:luminance" maskUnits="userSpaceOnUse" x="18" y="0" width="90" height="34">
<path d="M107.472 0H18.5312V33.1364H107.472V0Z" fill="white"/>
</mask>
<g mask="url(#mask0_2046_373)">
<path fill-rule="evenodd" clip-rule="evenodd" d="M83.4945 0.348633L83.5434 0.377728L97.52 8.66533L97.8757 8.87612C98.3946 9.05183 98.9137 9.22756 99.4329 9.4033C100.175 9.65442 100.917 9.90561 101.658 10.1567L101.69 10.1675L101.716 10.1892L103.77 11.9262L103.8 11.9519L103.816 11.9879L105.172 15.0016L105.028 15.0644L105.159 15.198L105.328 17.0815L105.222 22.7531L104.523 24.0088L103.973 26.1853L103.676 25.2854L104.248 23.9145L104.079 21.9578L102.088 21.3718L103.528 19.5302L104.375 21.1625L103.93 18.3581C103.722 18.5989 103.515 18.8399 103.306 19.081C102.854 19.6053 102.402 20.1301 101.947 20.6533L102.051 20.0954L102.052 20.0893C102.274 18.8918 102.498 17.6923 102.723 16.4955L103.507 17.1443L103.803 17.9605L103.843 17.8989L103.881 17.8386L103.959 17.7181L104.019 17.6237L104.069 17.5459L104.114 17.4757C104.079 17.1268 103.983 16.5967 103.697 16.0142C103.454 15.5189 103.161 15.1596 102.935 14.9259L101.982 14.3818L101.079 14.7376L100.097 16.0491L99.8009 17.2071C99.9366 17.0817 100.072 16.9572 100.208 16.8327C100.344 16.7082 100.481 16.5825 100.616 16.4571L100.59 17.0833L100.563 17.7094L99.8223 18.8395L99.674 20.1789L99.6105 21.0788V23.4438L99.6987 25.9377L98.2128 24.5947L97.9686 22.9386L96.2857 23.3808L89.8481 24.7203L84.554 25.6831L79.1857 26.5201L78.2434 27.8178L83.1986 27.563L90.9492 26.6039L98.2763 24.6785L99.928 26.1435L100.563 28.3618L101.834 28.9059L102.427 28.3618L103.02 27.563L102.554 27.0643L102.512 23.8204L103.528 25.6411L103.825 26.3108V27.1898L102.13 30.3082H93.5751L91.7962 27.8178L83.0292 28.3618L77.9257 28.5293L76.6586 30.3082H74.7916L75.9351 29.6594L77.2905 28.0269L78.1586 26.1435V23.6111L77.5164 19.5057L78.7515 18.2953L78.8786 19.8021L78.8875 19.9584L98.2128 11.5774L95.0363 11.389L84.1093 10.3845L75.8504 9.09739H70.6093L66.0882 9.8508L61.3022 11.5774L54.2186 14.5911L60.6668 10.824L66.0882 9.56828L71.181 8.28119H75.9458L84.5963 10.0078L99.1022 11.3576L79.1056 23.8109L79.1857 25.2227L83.2834 24.4692L87.8152 23.2135L92.1351 22.502L96.9633 17.521L97.5563 22.6693L97.9163 22.5856L98.3186 20.5974L98.8057 17.521L99.7587 14.9259L100.923 13.5446L102.3 12.7912L103.105 12.9377L104.058 14.0678L104.63 14.655L103.51 12.1656L101.512 10.4759C100.782 10.2284 100.051 9.98101 99.3195 9.73357L99.3079 9.72964L99.3055 9.7289L99.3034 9.72813L99.3012 9.72739C98.5741 9.48135 97.8472 9.23531 97.1212 8.98926H94.3142L92.3844 9.40385L92.3095 9.06301L94.2577 8.64444L94.276 8.64046H94.2951H96.7921L83.4111 0.705926L79.5715 1.03588L79.564 1.03653H79.5563H70.3757L68.4599 2.20153L79.8105 2.11783L76.1682 7.47544L71.594 7.30803L67.0198 7.89401H66.0882H49.1469L60.1587 2.70381H63.8857L69.0549 1.07496L60.8825 1.53648L56.0024 3.94808L55.8444 3.6361L60.7572 1.20842L60.79 1.19234L60.826 1.19029L69.7201 0.68801L69.7255 0.687728H69.7305H79.5485L83.4376 0.353531L83.4945 0.348633ZM66.0882 7.89401L56.9398 10.3217L49.1469 14.3399L56.1351 10.2798L66.0882 7.89401ZM81.3775 2.74567L82.0976 1.86669C82.7257 2.03935 83.3539 2.21287 83.9822 2.3864C84.6103 2.55992 85.2387 2.73346 85.8668 2.90612C87.2786 3.63512 88.6903 4.36412 90.1023 5.08962L90.6528 6.59646L88.7893 8.14515L84.1304 8.3963L83.1563 8.68928L83.4951 9.13924L82.0127 8.3963L83.3893 7.01503L82.7328 6.97317L82.987 6.21976L88.2386 6.68017L86.6293 5.25705L82.9021 5.63376L81.8433 7.60103H78.5399L81.3775 2.74567ZM46.0551 6.74296H48.4374L47.7703 8.37537L44.0858 8.62651L44.5305 7.89401L46.2598 7.68473L46.0551 6.74296ZM21.3211 16.642V17.0606H27.1718L26.6433 17.5873L49.3233 16.8548L52.754 19.9313L65.0151 16.7292L61.4575 18.1733L53.4211 26.147L62.061 22.9449C64.0164 20.479 65.9677 18.0166 67.9194 15.5508C65.2831 15.8813 62.6452 16.2109 60.0072 16.5405L60.0027 16.5411L59.9977 16.5417L59.9931 16.5423L59.9853 16.5433C57.6493 16.8352 55.3128 17.1271 52.9764 17.4198L50.4351 17.0641L48.4339 15.7247L37.4117 15.5991L42.2399 12.711L52.2139 9.23692L61.2351 7.89751H55.1999L49.8634 8.86021L42.2399 10.4508L34.6799 15.6619L28.1686 16.3144L28.9869 15.2608L33.5186 12.2052L37.7787 10.6984L40.8457 9.80546L43.3446 8.85671H41.608L34.7045 9.73569L28.3515 12.6656L21.3211 16.642ZM21.4256 18.8459L21.6176 18.9074V22.2054L22.1681 25.1389L20.7282 28.0269L25.9375 26.5201L28.8175 27.4409L39.787 28.0269L49.6127 27.3154L53.8057 23.339L37.4999 25.0133L27.5045 24.0088L22.6128 19.6138L22.7382 19.2668L26.954 20.6184L35.8128 20.4615H44.121L52.4292 19.9416L51.6174 19.2686L44.0893 19.6068L35.8446 19.6592L26.3787 19.7428L25.1293 19.3034L22.8277 19.0192L22.8463 18.9678L26.0646 19.2651L51.1751 18.6372L49.7858 17.6187L26.3468 18.1768C25.5371 17.9966 24.7264 17.8164 23.9158 17.6363L23.8993 17.6327C23.0831 17.4512 22.267 17.2699 21.4515 17.0885C21.4604 17.2315 21.4684 17.3754 21.4764 17.5193C21.4842 17.6631 21.4921 17.807 21.501 17.95L21.5327 18.8465L21.6176 18.8542V18.8695L21.4256 18.8459ZM21.4256 18.8459L21.4058 18.8395L21.4023 18.843L21.4256 18.8459ZM28.807 23.224L27.0282 21.4416L35.4457 21.2986L43.6728 21.3544L52.0269 20.6184L49.2634 22.46L37.7011 23.789L28.807 23.224ZM56.0928 15.2189L60.7304 13.7121L61.5562 14.1516L61.3658 13.304L71.3716 9.9136L74.1351 10.1961L79.1857 13.0214L75.374 11.2635L74.008 11.3262L72.6105 11.7657L69.9104 14.6852L69.4181 17.3766L71.1704 14.6748L73.6693 12.3727L75.4903 12.0378L77.0151 12.8749L78.1586 14.5073L78.7515 18.1802L77.0998 19.9486L74.0929 21.4974L76.6762 17.9814L76.9727 16.7676L74.6009 15.0515L76.2528 17.3117L75.7868 18.4L74.1351 19.9906L72.9492 22.502L72.5681 20.3673L73.9022 15.4282L73.0975 15.47L71.9751 15.763L70.4081 17.0187L69.6458 18.8185L69.0721 20.6861L68.6624 24.8721L68.7564 25.7876L69.5398 28.0269L71.2128 30.1616L73.9446 30.4755H94.4011L107.255 30.4965L73.7115 32.2649L70.4928 32.9241L52.6304 32.7045L36.3175 32.6102L31.8881 32.9241L28.0971 32.18L26.6468 32.2649L18.5469 31.9825L25.9481 31.5429L23.9258 29.6802L21.4269 28.2362L28.4151 28.5083L28.0128 27.9501L37.0657 28.6096L49.7398 28.435L53.8057 27.9501L67.401 24.8878L67.574 25.7981L67.8598 25.7911L68.4562 22.8576L68.4566 22.8621L68.5446 18.4523L68.781 14.4655L72.2751 11.117L69.8292 11.3576L62.6363 14.7655L56.0928 15.2189ZM35.2591 31.7376L36.0492 31.7104L43.1009 31.5116L51.5822 31.3545L64.1611 31.2918L62.4486 29.0354L62.2552 29.063L52.7045 29.6802L37.9551 29.8478L35.2591 31.7376ZM71.4458 16.7467L71.0222 17.4582L72.1658 19.6975L72.5681 17.4791L73.161 16.0351L72.2927 16.1816L71.4458 16.7467ZM69.1587 23.5483C69.3697 22.7391 69.5811 21.93 69.7929 21.1206L69.7953 21.1117C70.061 20.0957 70.3269 19.0792 70.5915 18.0616C71.0331 19.1688 71.4732 20.2759 71.9138 21.3838C72.1808 22.0561 72.4484 22.7288 72.7163 23.4018L73.161 23.7157L77.9257 23.8204L77.7563 25.369L77.3752 26.6457L76.4433 28.3618L75.1728 27.4409L72.2716 23.925L70.8951 22.1461L70.6834 24.6365L70.4928 25.5993L69.8363 27.1898L68.8198 24.8668L69.1587 23.5483ZM73.8386 22.1879L73.3728 22.9204L77.7563 23.2135L77.2269 20.5766L73.8386 22.1879ZM70.9799 25.9342L71.2975 23.7577L71.6998 24.511V26.9387L71.1282 29.0525L70.1681 27.9223C70.304 27.591 70.4389 27.2596 70.5739 26.9283C70.7088 26.5969 70.8439 26.2655 70.9799 25.9342ZM72.4623 25.2889L74.0716 27.0468V29.9558C73.6771 29.9195 73.2835 29.884 72.8899 29.8483H72.8875L72.8821 29.8478L72.8775 29.8474L72.8755 29.847C72.4825 29.8115 72.0871 29.776 71.6927 29.7397C71.848 29.0838 71.9927 28.3863 72.1234 27.6538C72.2681 26.827 72.3774 26.0387 72.4623 25.2889ZM75.1939 28.4665L74.8552 29.5967L75.8928 28.7594L75.1939 28.4665ZM101.474 15.0724L100.966 15.7002L101.474 20.5556L101.961 17.2908L102.384 15.5119L103.443 16.5164L102.236 15.0306L101.474 15.0724ZM100.712 18.9232L100.966 21.7067L101.792 24.0088L101.813 28.1944L100.966 28.0269L100.648 27.1898L100.966 26.1853L100.881 24.4692L100.457 22.4392L100.182 20.7021C100.288 20.4648 100.394 20.2277 100.5 19.9871C100.57 19.6313 100.641 19.2754 100.712 18.9232ZM100.352 24.0018L100.034 22.7671V22.7706L100.023 23.6914C100.069 23.9408 100.114 24.1901 100.159 24.4395C100.204 24.689 100.249 24.9382 100.295 25.1877L100.352 24.0018ZM101.622 22.3449L101.721 22.645L102.007 23.0669L102.469 22.9729L101.622 22.3449ZM103.722 22.3449L101.813 21.6544L101.809 21.6509V22.1216L102.766 22.7043V23.3635C102.914 23.6435 103.062 23.9235 103.208 24.2026C103.284 24.3477 103.36 24.4924 103.436 24.6365L103.722 22.3449Z" fill="#27174D"/>
<path d="M83.4919 0.348112L83.5375 0.27334L83.5126 0.258789L83.4845 0.261239L83.4919 0.348112ZM97.8731 8.87558L97.8277 8.95038L97.8359 8.95511L97.8446 8.95807L97.8731 8.87558ZM101.688 10.167L101.745 10.1007L101.732 10.0899L101.716 10.0845L101.688 10.167ZM103.798 11.9513L103.878 11.9159L103.87 11.8979L103.855 11.8851L103.798 11.9513ZM105.169 15.001L105.205 15.0807L105.286 15.0453L105.25 14.9656L105.169 15.001ZM105.026 15.0639L104.99 14.9842L104.875 15.0348L104.962 15.1244L105.026 15.0639ZM105.156 15.1974L105.244 15.1897L105.241 15.1591L105.22 15.137L105.156 15.1974ZM105.326 17.081L105.414 17.0826V17.0779L105.413 17.0733L105.326 17.081ZM105.22 22.7525L105.297 22.7946L105.307 22.7757L105.308 22.7541L105.22 22.7525ZM104.521 24.0082L104.443 23.9662L104.438 23.9761L104.435 23.9872L104.521 24.0082ZM103.97 26.1849L103.886 26.2117L103.982 26.5002L104.056 26.2058L103.97 26.1849ZM103.674 25.2848L103.592 25.2517L103.58 25.2813L103.59 25.3119L103.674 25.2848ZM104.246 23.9141L104.327 23.9472L104.335 23.9277L104.333 23.9065L104.246 23.9141ZM104.076 21.9572L104.164 21.9498L104.159 21.8906L104.101 21.8736L104.076 21.9572ZM102.086 21.3712L102.016 21.3179L101.937 21.4186L102.061 21.4548L102.086 21.3712ZM103.526 19.5296L103.604 19.4898L103.541 19.3676L103.456 19.4762L103.526 19.5296ZM104.373 21.1619L104.294 21.2017L104.545 21.6851L104.46 21.1485L104.373 21.1619ZM103.928 18.3576L104.015 18.3441L103.985 18.1568L103.861 18.301L103.928 18.3576ZM101.944 20.6527L101.857 20.6369L101.799 20.9545L102.011 20.7094L101.944 20.6527ZM102.721 16.495L102.778 16.4282L102.662 16.3323L102.634 16.479L102.721 16.495ZM103.504 17.1438L103.587 17.1143L103.579 17.0921L103.561 17.0769L103.504 17.1438ZM103.801 17.96L103.718 17.9894L103.779 18.1577L103.875 18.0065L103.801 17.96ZM104.111 17.4751L104.186 17.5217L104.202 17.4963L104.199 17.4664L104.111 17.4751ZM102.933 14.9254L102.997 14.8651L102.988 14.8561L102.977 14.8499L102.933 14.9254ZM101.98 14.3812L102.024 14.3057L101.987 14.2846L101.947 14.3003L101.98 14.3812ZM101.076 14.737L101.043 14.656L101.02 14.6652L101.005 14.6852L101.076 14.737ZM100.095 16.0485L100.024 15.9967L100.014 16.0105L100.01 16.0271L100.095 16.0485ZM99.7985 17.2066L99.7131 17.1852L99.6393 17.4731L99.8589 17.2703L99.7985 17.2066ZM100.614 16.4566L100.702 16.4603L100.711 16.2474L100.553 16.3929L100.614 16.4566ZM100.561 17.7088L100.635 17.7563L100.648 17.7363L100.649 17.7125L100.561 17.7088ZM99.8196 18.8389L99.7455 18.7916L99.7342 18.8089L99.7318 18.8295L99.8196 18.8389ZM99.6714 20.1783L99.5836 20.169V20.1723L99.6714 20.1783ZM99.6078 21.0784L99.52 21.0723L99.5196 21.0752V21.0784H99.6078ZM99.6078 23.4432H99.5196V23.4461L99.6078 23.4432ZM99.6962 25.9371L99.6366 26.0015L99.7918 26.1416L99.7844 25.9341L99.6962 25.9371ZM98.2104 24.5943L98.1231 24.6068L98.1273 24.6376L98.1507 24.6586L98.2104 24.5943ZM97.966 22.938L98.0532 22.9255L98.0388 22.8287L97.9432 22.8539L97.966 22.938ZM96.2831 23.3804L96.3016 23.4658L96.3057 23.4647L96.2831 23.3804ZM89.8456 24.7199L89.8614 24.8056L89.864 24.8051L89.8456 24.7199ZM84.5514 25.6825L84.5653 25.7686L84.5673 25.7683L84.5514 25.6825ZM79.1832 26.5195L79.1693 26.4336L79.133 26.4391L79.1115 26.4687L79.1832 26.5195ZM78.2408 27.8172L78.1691 27.7664L78.0622 27.9137L78.2455 27.9043L78.2408 27.8172ZM83.1962 27.5626L83.2008 27.6497L83.2039 27.6495L83.2071 27.6491L83.1962 27.5626ZM90.9466 26.6033L90.9578 26.6898L90.9637 26.6891L90.9692 26.6876L90.9466 26.6033ZM98.2737 24.6779L98.3326 24.6131L98.2971 24.5816L98.2511 24.5936L98.2737 24.6779ZM99.9256 26.1429L100.011 26.1191L100.004 26.0948L99.9845 26.0781L99.9256 26.1429ZM100.561 28.3614L100.476 28.3851L100.487 28.4249L100.526 28.4413L100.561 28.3614ZM101.831 28.9054L101.797 28.9854L101.849 29.0081L101.891 28.9694L101.831 28.9054ZM102.424 28.3614L102.484 28.4252L102.491 28.4195L102.496 28.4129L102.424 28.3614ZM103.017 27.5626L103.089 27.6141L103.131 27.5562L103.082 27.5033L103.017 27.5626ZM102.551 27.0637L102.463 27.0648L102.464 27.0983L102.487 27.123L102.551 27.0637ZM102.509 23.8198L102.586 23.7777L102.416 23.4732L102.421 23.8209L102.509 23.8198ZM103.526 25.6407L103.606 25.6057L103.605 25.602L103.603 25.5985L103.526 25.6407ZM103.822 26.3104H103.91V26.2922L103.903 26.2754L103.822 26.3104ZM103.822 27.1893L103.9 27.2305L103.91 27.2113V27.1893H103.822ZM102.128 30.3076V30.3948H102.181L102.205 30.3488L102.128 30.3076ZM93.5726 30.3076L93.5005 30.358L93.5267 30.3948H93.5726V30.3076ZM91.7938 27.8172L91.8659 27.7669L91.8375 27.727L91.7881 27.7301L91.7938 27.8172ZM83.0268 28.3614L83.0296 28.4484L83.0324 28.4483L83.0268 28.3614ZM77.9232 28.5287L77.9205 28.4416L77.8762 28.4431L77.8512 28.4784L77.9232 28.5287ZM76.6562 30.3076V30.3948H76.702L76.7281 30.3578L76.6562 30.3076ZM74.789 30.3076L74.7453 30.2321L74.4581 30.3948H74.789V30.3076ZM75.9326 29.6588L75.9764 29.7345L75.9904 29.7266L76.0008 29.7142L75.9326 29.6588ZM77.2879 28.0265L77.3561 28.0817L77.3635 28.0729L77.3683 28.0626L77.2879 28.0265ZM78.1562 26.1429L78.2362 26.179L78.2444 26.1618V26.1429H78.1562ZM78.1562 23.6105H78.2444V23.6039L78.2432 23.5973L78.1562 23.6105ZM77.5137 19.5051L77.4517 19.4433L77.4196 19.4746L77.4267 19.5186L77.5137 19.5051ZM78.7491 18.2948L78.8369 18.2876L78.8214 18.1013L78.687 18.2329L78.7491 18.2948ZM78.8762 19.8017L78.9644 19.7967L78.964 19.7943L78.8762 19.8017ZM78.8849 19.9578L78.7967 19.9628L78.8041 20.0883L78.9207 20.0377L78.8849 19.9578ZM98.2104 11.5769L98.2456 11.6567L98.5806 11.5115L98.2155 11.4898L98.2104 11.5769ZM95.0339 11.3885L95.0257 11.4754L95.0285 11.4756L95.0339 11.3885ZM84.1067 10.3839L84.093 10.4701L84.0958 10.4705L84.0985 10.4708L84.1067 10.3839ZM75.8479 9.09686L75.8617 9.01074L75.855 9.00967H75.8479V9.09686ZM70.6067 9.09686V9.00967H70.5993L70.5919 9.01089L70.6067 9.09686ZM66.0855 9.85029L66.0707 9.7643L66.0629 9.76562L66.0552 9.76839L66.0855 9.85029ZM61.2996 11.5769L61.2694 11.4948L61.2647 11.4968L61.2996 11.5769ZM54.2162 14.5905L54.1713 14.5155L54.251 14.6706L54.2162 14.5905ZM60.6644 10.8234L60.6442 10.7385L60.6312 10.7416L60.6196 10.7484L60.6644 10.8234ZM71.1785 8.28067V8.19347H71.1676L71.1567 8.19619L71.1785 8.28067ZM75.9432 8.28067L75.9604 8.19518L75.9521 8.19347H75.9432V8.28067ZM84.5938 10.0072L84.5764 10.0927L84.5807 10.0936L84.5857 10.0941L84.5938 10.0072ZM99.0998 11.3571L99.1467 11.4309L99.3662 11.2943L99.1077 11.2703L99.0998 11.3571ZM79.103 23.8103L79.0561 23.7366L79.0124 23.7639L79.0152 23.8152L79.103 23.8103ZM79.1832 25.2221L79.095 25.227L79.1006 25.3259L79.1994 25.3078L79.1832 25.2221ZM83.2808 24.4686L83.2971 24.5544L83.301 24.5536L83.3046 24.5525L83.2808 24.4686ZM87.8126 23.2129L87.7981 23.1269L87.7935 23.1277L87.789 23.1289L87.8126 23.2129ZM92.1325 22.5014L92.1472 22.5874L92.1761 22.5826L92.1964 22.5618L92.1325 22.5014ZM96.9609 17.5205L97.0484 17.5106L97.0273 17.3259L96.897 17.4602L96.9609 17.5205ZM97.5539 22.6689L97.4662 22.6787L97.4771 22.7762L97.5739 22.7538L97.5539 22.6689ZM97.9139 22.5851L97.9339 22.67L97.9893 22.6571L98.0002 22.6023L97.9139 22.5851ZM98.3162 20.597L98.4027 20.6141L98.4033 20.6104L98.3162 20.597ZM98.8031 17.5205L98.7203 17.4907L98.7175 17.4987L98.716 17.507L98.8031 17.5205ZM99.7561 14.9254L99.6885 14.8696L99.6784 14.8813L99.6733 14.8956L99.7561 14.9254ZM100.921 13.5441L100.878 13.4678L100.864 13.4758L100.853 13.4883L100.921 13.5441ZM102.297 12.7907L102.313 12.7049L102.282 12.6993L102.255 12.7144L102.297 12.7907ZM103.102 12.9372L103.17 12.8814L103.149 12.8572L103.118 12.8514L103.102 12.9372ZM104.055 14.0673L103.987 14.1231L103.989 14.1255L103.992 14.1278L104.055 14.0673ZM104.627 14.6545L104.564 14.7149L104.912 15.072L104.708 14.6191L104.627 14.6545ZM103.508 12.1651L103.588 12.1297L103.58 12.1116L103.565 12.0988L103.508 12.1651ZM101.51 10.4753L101.567 10.4091L101.554 10.3983L101.538 10.3928L101.51 10.4753ZM97.1186 8.98874L97.1471 8.90625L97.1331 8.90154H97.1186V8.98874ZM94.3116 8.98874V8.90154H94.3021L94.2931 8.90353L94.3116 8.98874ZM92.3817 9.40333L92.2958 9.42185L92.3143 9.50707L92.4005 9.48853L92.3817 9.40333ZM92.3069 9.06247L92.2882 8.97725L92.2018 8.99579L92.2205 9.08099L92.3069 9.06247ZM94.2736 8.63993V8.55274H94.264L94.2549 8.55473L94.2736 8.63993ZM96.7897 8.63993V8.72713H97.108L96.8349 8.56515L96.7897 8.63993ZM83.4087 0.705405L83.4537 0.630629L83.4294 0.61608L83.4009 0.618532L83.4087 0.705405ZM79.5616 1.03601V1.12321H79.5655L79.569 1.12288L79.5616 1.03601ZM70.3731 1.03601V0.94881H70.348L70.3266 0.961748L70.3731 1.03601ZM68.4573 2.20102L68.4112 2.12675L68.1418 2.29054L68.458 2.28822L68.4573 2.20102ZM79.8079 2.11731L79.8812 2.16593L79.9744 2.02887L79.8071 2.03011L79.8079 2.11731ZM76.1655 7.47493L76.1624 7.56206L76.2115 7.56388L76.2389 7.52354L76.1655 7.47493ZM71.5914 7.3075L71.5947 7.22037L71.5871 7.22009L71.5801 7.22103L71.5914 7.3075ZM67.0174 7.89349V7.9807H67.0229L67.0287 7.97996L67.0174 7.89349ZM49.1443 7.89349L49.1065 7.81478L48.7544 7.9807H49.1443V7.89349ZM60.1561 2.70329V2.61609H60.1359L60.118 2.62459L60.1561 2.70329ZM63.8831 2.70329V2.79049H63.897L63.91 2.78637L63.8831 2.70329ZM69.0525 1.07444L69.0792 1.15752L69.7442 0.94804L69.0475 0.98738L69.0525 1.07444ZM60.8801 1.53595L60.8751 1.44889L60.8571 1.44992L60.8408 1.45796L60.8801 1.53595ZM56 3.94754L55.9209 3.98655L55.9603 4.06453L56.0391 4.02554L56 3.94754ZM55.8417 3.63558L55.8026 3.55758L55.7235 3.59657L55.763 3.67457L55.8417 3.63558ZM60.7876 1.19182L60.7822 1.10476L60.7643 1.10579L60.748 1.11383L60.7876 1.19182ZM69.723 0.687207V0.600007H69.7205L69.7177 0.600149L69.723 0.687207ZM79.546 0.687207V0.774409H79.5499L79.5538 0.77408L79.546 0.687207ZM56.9374 10.3212L56.9144 10.237L56.9051 10.2394L56.8964 10.2439L56.9374 10.3212ZM49.1443 14.3394L49.0996 14.2642L49.1852 14.4167L49.1443 14.3394ZM56.1327 10.2793L56.1117 10.1946L56.0991 10.1976L56.0878 10.2041L56.1327 10.2793ZM82.095 1.86617L82.1187 1.78215L82.0629 1.76682L82.0266 1.8113L82.095 1.86617ZM81.3749 2.74515L81.3065 2.69027L81.3019 2.69561L81.2987 2.70154L81.3749 2.74515ZM85.8644 2.90561L85.9053 2.82831L85.8968 2.82405L85.8881 2.82159L85.8644 2.90561ZM90.0997 5.08911L90.1827 5.05951L90.171 5.02744L90.1402 5.01175L90.0997 5.08911ZM90.6504 6.59595L90.7071 6.66266L90.7539 6.62354L90.7332 6.56633L90.6504 6.59595ZM88.7867 8.14463L88.7917 8.23169L88.8209 8.23012L88.8436 8.21136L88.7867 8.14463ZM84.128 8.39577L84.123 8.30871L84.1124 8.30926L84.1021 8.31234L84.128 8.39577ZM83.1537 8.68877L83.128 8.60534L83.0081 8.64144L83.0829 8.74085L83.1537 8.68877ZM83.4926 9.13872L83.4528 9.2165L83.7876 9.38432L83.5636 9.08664L83.4926 9.13872ZM82.0103 8.39577L81.9475 8.33459L81.8628 8.41959L81.9704 8.47356L82.0103 8.39577ZM83.3866 7.01451L83.4496 7.07569L83.5851 6.93976L83.3924 6.92748L83.3866 7.01451ZM82.7303 6.97265L82.6466 6.94506L82.6103 7.05238L82.7246 7.05967L82.7303 6.97265ZM82.9844 6.21924L82.9921 6.13239L82.9227 6.12628L82.9008 6.19165L82.9844 6.21924ZM88.2362 6.67965L88.2284 6.76651L88.4932 6.7897L88.2951 6.61467L88.2362 6.67965ZM86.6267 5.25654L86.6856 5.19155L86.6563 5.16589L86.618 5.1698L86.6267 5.25654ZM82.8997 5.63324L82.8908 5.5465L82.8439 5.55125L82.8217 5.5923L82.8997 5.63324ZM81.8409 7.60049V7.6877H81.8937L81.9189 7.64145L81.8409 7.60049ZM78.5373 7.60049L78.4612 7.5569L78.3844 7.6877H78.5373V7.60049ZM48.435 6.74245L48.5167 6.77509L48.5658 6.65524H48.435V6.74245ZM46.0527 6.74245V6.65524H45.9433L45.9663 6.76075L46.0527 6.74245ZM47.7679 8.37484L47.774 8.46184L47.8291 8.45806L47.8496 8.40749L47.7679 8.37484ZM44.0832 8.62599L44.0076 8.58113L43.9205 8.72448L44.0893 8.71297L44.0832 8.62599ZM44.5279 7.89349L44.5171 7.80695L44.4743 7.81213L44.4523 7.84863L44.5279 7.89349ZM46.2574 7.68422L46.268 7.77074L46.3639 7.75916L46.3436 7.6659L46.2574 7.68422ZM21.3185 17.0601H21.2303V17.1473H21.3185V17.0601ZM21.3185 16.6415L21.2747 16.5658L21.2303 16.5909V16.6415H21.3185ZM27.1693 17.0601L27.232 17.1215L27.3811 16.9729H27.1693V17.0601ZM26.6409 17.5867L26.5782 17.5254L26.422 17.6811L26.6436 17.6739L26.6409 17.5867ZM49.3209 16.8543L49.3802 16.7897L49.3537 16.7659L49.3179 16.7671L49.3209 16.8543ZM52.7514 19.9307L52.6921 19.9954L52.7277 20.0272L52.774 20.0151L52.7514 19.9307ZM65.0127 16.7287L65.0462 16.8094L64.9901 16.6444L65.0127 16.7287ZM61.455 18.1727L61.4215 18.0921L61.4048 18.0988L61.3924 18.1112L61.455 18.1727ZM53.4185 26.1464L53.356 26.0849L53.0699 26.3688L53.4494 26.2281L53.4185 26.1464ZM62.0585 22.9443L62.0895 23.026L62.1125 23.0174L62.128 22.9982L62.0585 22.9443ZM67.9209 15.5497L67.9318 15.6362L67.9209 15.4625V15.5497ZM67.9174 15.5497V15.4625H67.8742L67.8479 15.4961L67.9174 15.5497ZM52.9738 17.4193L52.9613 17.5057L52.9732 17.5073L52.9849 17.5058L52.9738 17.4193ZM50.4326 17.0635L50.3832 17.1357L50.4 17.147L50.4202 17.1499L50.4326 17.0635ZM48.4315 15.7241L48.4809 15.6519L48.4589 15.6373L48.4324 15.6369L48.4315 15.7241ZM37.409 15.5986L37.3633 15.524L37.0989 15.6823L37.4081 15.6858L37.409 15.5986ZM42.2373 12.7105L42.208 12.6282L42.1995 12.6312L42.1917 12.6359L42.2373 12.7105ZM52.2115 9.23638L52.1983 9.15017L52.19 9.15139L52.1822 9.15415L52.2115 9.23638ZM61.2327 7.89699L61.2457 7.9832L61.2327 7.80979V7.89699ZM55.1973 7.89699V7.80979H55.1891L55.1814 7.8112L55.1973 7.89699ZM49.8608 8.85968L49.8451 8.77387L49.8427 8.77437L49.8608 8.85968ZM42.2373 10.4502L42.2191 10.3649L42.2015 10.3686L42.1869 10.3787L42.2373 10.4502ZM34.6773 15.6614L34.6862 15.7481L34.7089 15.7458L34.7278 15.7329L34.6773 15.6614ZM28.1662 16.3139L28.0962 16.2608L27.9718 16.421L28.1751 16.4006L28.1662 16.3139ZM28.9843 15.2602L28.9346 15.1882L28.9229 15.196L28.9144 15.2071L28.9843 15.2602ZM33.5162 12.2047L33.4864 12.1226L33.4758 12.1264L33.4664 12.1327L33.5162 12.2047ZM37.7761 10.6979L37.7513 10.6142L37.7487 10.6149L37.7465 10.6158L37.7761 10.6979ZM40.8431 9.80495L40.8681 9.88858L40.8715 9.8876L40.8748 9.88635L40.8431 9.80495ZM43.342 8.8562L43.3737 8.9376L43.8176 8.76899H43.342V8.8562ZM41.6056 8.8562V8.76899H41.5998L41.5943 8.76969L41.6056 8.8562ZM34.7021 9.73518L34.6908 9.64867L34.6771 9.65042L34.6647 9.65618L34.7021 9.73518ZM28.3491 12.6651L28.3118 12.5861L28.3085 12.5877L28.3052 12.5894L28.3491 12.6651ZM51.1773 18.6401L51.1247 18.7102L51.2398 18.5786L51.1773 18.6401ZM51.1738 18.6366L51.2363 18.5751L51.2094 18.5486L51.1716 18.5495L51.1738 18.6366ZM21.6149 18.9068H21.7031V18.8435L21.6422 18.824L21.6149 18.9068ZM21.6149 22.205H21.5267V22.2129L21.5282 22.2208L21.6149 22.205ZM22.1655 25.1383L22.2448 25.177L22.2575 25.151L22.2524 25.1225L22.1655 25.1383ZM20.7255 28.0265L20.6464 27.9878L20.5577 28.1659L20.7504 28.1101L20.7255 28.0265ZM25.9349 26.5195L25.9621 26.4367L25.9362 26.4284L25.9103 26.436L25.9349 26.5195ZM28.8149 27.4405L28.7879 27.5234L28.7988 27.5269L28.8101 27.5274L28.8149 27.4405ZM39.7843 28.0265L39.7795 28.1136L39.7853 28.1138L39.7908 28.1134L39.7843 28.0265ZM49.6103 27.3148L49.6168 27.4019L49.6485 27.3995L49.6713 27.3778L49.6103 27.3148ZM53.8031 23.3384L53.8643 23.4014L54.0499 23.2256L53.7941 23.2517L53.8031 23.3384ZM37.4972 25.0128L37.4884 25.0995L37.4974 25.1004L37.5063 25.0995L37.4972 25.0128ZM27.5019 24.0082L27.4426 24.0728L27.4641 24.0921L27.493 24.0951L27.5019 24.0082ZM22.6102 19.6134L22.5271 19.5839L22.5073 19.6388L22.5509 19.6778L22.6102 19.6134ZM22.7356 19.2662L22.7628 19.1831L22.6813 19.1572L22.6526 19.2369L22.7356 19.2662ZM26.9514 20.6179L26.9242 20.7008L26.9383 20.7054L26.9531 20.705L26.9514 20.6179ZM44.1185 20.4609V20.5482H44.1213L44.1241 20.548L44.1185 20.4609ZM52.4268 19.9412L52.4323 20.0281L52.6523 20.0145L52.4835 19.8744L52.4268 19.9412ZM51.615 19.268L51.6717 19.2012L51.6454 19.1793L51.6109 19.1809L51.615 19.268ZM44.0867 19.6064L44.0872 19.6936L44.0908 19.6934L44.0867 19.6064ZM26.3761 19.7424L26.3466 19.8245L26.3613 19.8297L26.3768 19.8295L26.3761 19.7424ZM25.1266 19.3028L25.1563 19.2207L25.1472 19.2176L25.1376 19.2163L25.1266 19.3028ZM22.8251 19.0186L22.7421 18.9893L22.705 19.0917L22.8142 19.1051L22.8251 19.0186ZM22.8436 18.9672L22.852 18.8805L22.7836 18.8741L22.7606 18.9379L22.8436 18.9672ZM26.062 19.2645L26.0539 19.3514L26.059 19.3518L26.0642 19.3516L26.062 19.2645ZM49.7832 17.6182L49.8358 17.5481L49.8113 17.5302L49.7811 17.531L49.7832 17.6182ZM26.3444 18.1762L26.3249 18.2613L26.3357 18.2637L26.3464 18.2634L26.3444 18.1762ZM21.4491 17.088L21.4684 17.0029L21.3539 16.9774L21.3611 17.0933L21.4491 17.088ZM21.4984 17.9495L21.5868 17.9464L21.5866 17.9442L21.4984 17.9495ZM21.5303 18.8459L21.4421 18.849L21.4448 18.9256L21.5221 18.9328L21.5303 18.8459ZM21.6149 18.8538H21.7031V18.7743L21.6231 18.7669L21.6149 18.8538ZM21.6149 18.8691L21.604 18.9556L21.7031 18.9678V18.8691H21.6149ZM21.4032 18.8389L21.4304 18.7561L21.3791 18.7395L21.3407 18.7772L21.4032 18.8389ZM21.3996 18.8424L21.3372 18.7807L21.2097 18.9068L21.3887 18.9289L21.3996 18.8424ZM27.0255 21.441L27.0241 21.3538L26.818 21.3574L26.9627 21.5023L27.0255 21.441ZM28.8044 23.2234L28.7415 23.2847L28.7651 23.3083L28.7988 23.3105L28.8044 23.2234ZM35.4433 21.298L35.4438 21.2107L35.4416 21.2109L35.4433 21.298ZM43.6703 21.3538L43.6696 21.441H43.6738L43.6781 21.4407L43.6703 21.3538ZM52.0243 20.6179L52.0738 20.6901L52.3577 20.5009L52.0165 20.5311L52.0243 20.6179ZM49.2608 22.4596L49.271 22.5461L49.2923 22.5437L49.3101 22.5318L49.2608 22.4596ZM37.6985 23.7885L37.6929 23.8754L37.7007 23.876L37.7087 23.8751L37.6985 23.7885ZM60.7279 13.7115L60.7698 13.6348L60.7363 13.617L60.7003 13.6287L60.7279 13.7115ZM56.0902 15.2184L56.0628 15.1355L55.3893 15.3544L56.0963 15.3054L56.0902 15.2184ZM61.5538 14.151L61.5117 14.2278L61.6818 14.3182L61.64 14.1321L61.5538 14.151ZM61.3631 13.3034L61.3346 13.221L61.2597 13.2462L61.2772 13.3224L61.3631 13.3034ZM71.369 9.91306L71.3783 9.82632L71.3588 9.82437L71.3405 9.83057L71.369 9.91306ZM74.1327 10.1956L74.176 10.1197L74.1601 10.1107L74.1418 10.1088L74.1327 10.1956ZM79.1832 13.0209L79.1458 13.0999L79.2266 12.945L79.1832 13.0209ZM75.3714 11.2629L75.4088 11.1839L75.3892 11.1748L75.3671 11.1758L75.3714 11.2629ZM74.0056 11.3257L74.0013 11.2386L73.99 11.2391L73.9787 11.2426L74.0056 11.3257ZM72.6079 11.7652L72.581 11.6821L72.5588 11.6892L72.5427 11.7064L72.6079 11.7652ZM69.908 14.6847L69.8426 14.6259L69.8257 14.6445L69.8211 14.6692L69.908 14.6847ZM69.4155 17.3761L69.3287 17.3606L69.2493 17.7938L69.4896 17.4232L69.4155 17.3761ZM71.168 14.6742L71.1079 14.6104L71.0998 14.6179L71.0939 14.6272L71.168 14.6742ZM73.6667 12.3721L73.6505 12.2864L73.6255 12.291L73.6068 12.3083L73.6667 12.3721ZM75.4879 12.0373L75.5305 11.9611L75.5031 11.9458L75.4716 11.9516L75.4879 12.0373ZM77.0127 12.8744L77.0853 12.8248L77.0733 12.8081L77.0553 12.7982L77.0127 12.8744ZM78.1562 14.5068L78.2432 14.4931L78.2401 14.4735L78.2288 14.4572L78.1562 14.5068ZM78.7491 18.1797L78.8139 18.2389L78.843 18.2078L78.8362 18.166L78.7491 18.1797ZM77.0974 19.9482L77.1383 20.0255L77.1517 20.0185L77.1622 20.0073L77.0974 19.9482ZM74.0902 21.4968L74.0189 21.4456L73.7988 21.7453L74.1312 21.5741L74.0902 21.4968ZM76.6738 17.9809L76.7451 18.0321L76.7553 18.0182L76.7596 18.0014L76.6738 17.9809ZM76.9703 16.7671L77.0561 16.7875L77.0698 16.731L77.0225 16.6967L76.9703 16.7671ZM74.5985 15.0509L74.6508 14.9806L74.1999 14.6545L74.5268 15.102L74.5985 15.0509ZM76.2502 17.3112L76.3314 17.3452L76.3508 17.3L76.3219 17.2601L76.2502 17.3112ZM75.7844 18.3995L75.8457 18.4619L75.8589 18.4497L75.8656 18.4335L75.7844 18.3995ZM74.1327 19.99L74.0712 19.9276L74.0595 19.9387L74.0524 19.9532L74.1327 19.99ZM72.9468 22.5014L72.8599 22.5165L72.9083 22.7887L73.0268 22.5382L72.9468 22.5014ZM72.5655 20.3667L72.4802 20.3442L72.4752 20.3628L72.4787 20.3819L72.5655 20.3667ZM73.8996 15.4277L73.985 15.4501L74.0161 15.3343L73.8951 15.3406L73.8996 15.4277ZM73.095 15.4695L73.0904 15.3824L73.0811 15.3829L73.0724 15.3852L73.095 15.4695ZM71.9727 15.7625L71.9501 15.6782L71.9318 15.683L71.9171 15.6948L71.9727 15.7625ZM70.4055 17.0182L70.3501 16.9505L70.3329 16.9643L70.324 16.9845L70.4055 17.0182ZM69.6432 18.8181L69.5617 18.7844L69.56 18.7885L69.5589 18.7927L69.6432 18.8181ZM69.0697 20.6855L68.985 20.6603L68.9824 20.6686L68.9819 20.6772L69.0697 20.6855ZM68.6598 24.8716L68.5724 24.8633L68.5713 24.8719L68.5724 24.8804L68.6598 24.8716ZM68.7538 25.7872L68.6659 25.7959L68.6671 25.806L68.6706 25.8156L68.7538 25.7872ZM69.5374 28.0265L69.454 28.055L69.4586 28.0685L69.4673 28.0799L69.5374 28.0265ZM71.2102 30.1612L71.1404 30.2146L71.1633 30.2435L71.2 30.2477L71.2102 30.1612ZM73.942 30.4751L73.9318 30.5616L73.937 30.5622H73.942V30.4751ZM107.253 30.4959L107.257 30.583L107.253 30.4088V30.4959ZM73.7091 32.2645L73.7045 32.1774L73.6978 32.1778L73.6911 32.179L73.7091 32.2645ZM70.4904 32.9237L70.4892 33.0109H70.4987L70.5083 33.0091L70.4904 32.9237ZM36.3149 32.6098L36.3154 32.5226H36.3121L36.3086 32.5227L36.3149 32.6098ZM31.8856 32.9237L31.8684 33.0091L31.8801 33.0115L31.8919 33.0106L31.8856 32.9237ZM28.0947 32.1794L28.1117 32.094L28.1006 32.0918L28.0893 32.0923L28.0947 32.1794ZM26.6444 32.2645L26.6412 32.3515L26.6455 32.3517L26.6496 32.3515L26.6444 32.2645ZM18.5444 31.9819L18.5391 31.8948L18.5413 32.069L18.5444 31.9819ZM25.9455 31.5425L25.9508 31.6295L26.1561 31.6172L26.0057 31.4786L25.9455 31.5425ZM23.9232 29.6798L23.9834 29.6159L23.9761 29.6093L23.9678 29.6045L23.9232 29.6798ZM21.4243 28.2358L21.4278 28.1486L21.075 28.1349L21.3798 28.3109L21.4243 28.2358ZM28.4126 28.5077L28.4091 28.595L28.5889 28.602L28.4845 28.4573L28.4126 28.5077ZM28.0102 27.9497L28.0167 27.8628L27.8293 27.849L27.9385 28.0004L28.0102 27.9497ZM37.0631 28.609L37.0566 28.6959L37.0605 28.6962H37.0644L37.0631 28.609ZM49.7372 28.4346L49.7385 28.5217H49.7432L49.748 28.5212L49.7372 28.4346ZM53.8031 27.9497L53.8137 28.0363L53.8183 28.0357L53.8228 28.0348L53.8031 27.9497ZM67.3985 24.8872L67.4853 24.8712L67.4684 24.7821L67.3787 24.8022L67.3985 24.8872ZM67.5714 25.7975L67.4847 25.8137L67.4988 25.8866L67.5736 25.8848L67.5714 25.7975ZM67.8573 25.7905L67.8594 25.8778L67.93 25.8761L67.9439 25.8078L67.8573 25.7905ZM68.4538 22.8572L68.5416 22.8484L68.4827 22.272L68.3673 22.8399L68.4538 22.8572ZM68.4542 22.8616L68.3667 22.8703L68.5424 22.8633L68.4542 22.8616ZM68.542 18.4518L68.4538 18.4468V18.4501L68.542 18.4518ZM68.7784 14.465L68.7171 14.4023L68.6924 14.426L68.6902 14.4599L68.7784 14.465ZM72.2727 11.1164L72.334 11.1791L72.5158 11.0049L72.2638 11.0297L72.2727 11.1164ZM69.8268 11.3571L69.8179 11.2703L69.8027 11.2719L69.7886 11.2785L69.8268 11.3571ZM62.6337 14.7649L62.6398 14.8519L62.6567 14.8508L62.6719 14.8436L62.6337 14.7649ZM35.2567 31.737L35.2055 31.666L34.9652 31.8344L35.2596 31.8243L35.2567 31.737ZM64.1585 31.2912L64.1589 31.3784L64.3343 31.3775L64.2291 31.2389L64.1585 31.2912ZM62.446 29.035L62.5166 28.9825L62.4853 28.9412L62.4336 28.9486L62.446 29.035ZM62.2525 29.0624L62.2583 29.1495L62.2618 29.1491L62.2653 29.1487L62.2525 29.0624ZM52.7019 29.6798L52.703 29.7671L52.7079 29.7669L52.7019 29.6798ZM37.9525 29.8472L37.9516 29.7601L37.924 29.7603L37.9016 29.7761L37.9525 29.8472ZM71.0197 17.4577L70.9438 17.4135L70.9191 17.4545L70.941 17.497L71.0197 17.4577ZM71.4431 16.7461L71.3939 16.6739L71.3772 16.6849L71.3674 16.7019L71.4431 16.7461ZM72.1632 19.6969L72.0844 19.7363L72.2034 19.9694L72.2501 19.7124L72.1632 19.6969ZM72.5655 17.4786L72.4837 17.4458L72.4804 17.4543L72.4787 17.4632L72.5655 17.4786ZM73.1586 16.0346L73.2403 16.0674L73.2996 15.9223L73.1436 15.9486L73.1586 16.0346ZM72.2903 16.1811L72.2755 16.0951L72.2568 16.0983L72.2408 16.1088L72.2903 16.1811ZM70.5891 18.0611L70.6714 18.0291L70.5715 17.7789L70.5037 18.0394L70.5891 18.0611ZM72.7137 23.4012L72.6316 23.4333L72.6411 23.4572L72.6626 23.4723L72.7137 23.4012ZM73.1586 23.7153L73.1073 23.7862L73.1291 23.8018L73.1564 23.8024L73.1586 23.7153ZM77.9232 23.8198L78.0111 23.8292L78.0213 23.7348L77.9253 23.7328L77.9232 23.8198ZM77.7537 25.3686L77.8386 25.3933L77.8406 25.3857L77.8417 25.378L77.7537 25.3686ZM77.3725 26.6453L77.4502 26.6865L77.4544 26.6784L77.4572 26.6699L77.3725 26.6453ZM76.4409 28.3614L76.3886 28.4317L76.4705 28.491L76.5185 28.4026L76.4409 28.3614ZM75.1703 27.4405L75.1018 27.4956L75.1088 27.5042L75.1181 27.5109L75.1703 27.4405ZM72.269 23.9246L72.1988 23.9774L72.2006 23.9796L72.269 23.9246ZM70.8926 22.1455L70.9629 22.0927L70.8237 21.9132L70.8048 22.1384L70.8926 22.1455ZM70.6808 24.6361L70.7674 24.6529L70.7683 24.6481L70.7687 24.6433L70.6808 24.6361ZM70.4904 25.5987L70.5717 25.6317L70.5754 25.6239L70.5767 25.6155L70.4904 25.5987ZM69.8339 27.1893L69.7529 27.2239L69.8363 27.4144L69.9154 27.2222L69.8339 27.1893ZM68.8173 24.8662L68.7319 24.8449L68.7245 24.8736L68.7365 24.9008L68.8173 24.8662ZM73.3702 22.92L73.2955 22.8736L73.2171 22.9971L73.3643 23.0069L73.3702 22.92ZM73.8362 22.1875L73.798 22.1089L73.7751 22.1198L73.7614 22.1411L73.8362 22.1875ZM77.7537 23.2129L77.7478 23.3L77.8628 23.3077L77.8402 23.196L77.7537 23.2129ZM77.2243 20.576L77.3108 20.559L77.2886 20.4486L77.1863 20.4974L77.2243 20.576ZM71.2949 23.7571L71.3729 23.7164L71.2464 23.4793L71.2078 23.7445L71.2949 23.7571ZM70.9773 25.9336L71.0592 25.9663L71.0631 25.9566L71.0646 25.9461L70.9773 25.9336ZM71.6974 24.5105H71.7856V24.4888L71.7754 24.4699L71.6974 24.5105ZM71.6974 26.9382L71.7828 26.9608L71.7856 26.9496V26.9382H71.6974ZM71.1255 29.0519L71.0581 29.108L71.1669 29.2363L71.211 29.0745L71.1255 29.0519ZM70.1655 27.9218L70.0836 27.889L70.064 27.9376L70.0981 27.9779L70.1655 27.9218ZM74.0691 27.0464H74.1573V27.0127L74.1343 26.9879L74.0691 27.0464ZM72.4597 25.2883L72.5249 25.2298L72.3937 25.0864L72.3722 25.2788L72.4597 25.2883ZM74.0691 29.9554L74.061 30.0421L74.1573 30.0511V29.9554H74.0691ZM71.6903 29.7391L71.6045 29.7192L71.5812 29.8166L71.6822 29.8258L71.6903 29.7391ZM74.8526 29.5961L74.7679 29.5714L74.6867 29.8424L74.9083 29.6636L74.8526 29.5961ZM75.1915 28.4659L75.2261 28.3857L75.1349 28.3476L75.1068 28.4413L75.1915 28.4659ZM75.8902 28.759L75.946 28.8266L76.0594 28.7351L75.9248 28.6787L75.8902 28.759ZM100.963 15.6997L100.894 15.6452L100.872 15.6731L100.875 15.7087L100.963 15.6997ZM101.472 15.0719L101.467 14.9848L101.427 14.987L101.403 15.0174L101.472 15.0719ZM101.472 20.555L101.384 20.564L101.456 21.2558L101.559 20.5679L101.472 20.555ZM101.958 17.2903L101.873 17.2703L101.872 17.2739L101.871 17.2775L101.958 17.2903ZM102.382 15.5114L102.443 15.4485L102.331 15.3426L102.296 15.4914L102.382 15.5114ZM103.441 16.5159L103.38 16.5788L103.51 16.4613L103.441 16.5159ZM102.234 15.03L102.303 14.9754L102.274 14.9405L102.229 14.943L102.234 15.03ZM100.963 21.7061L100.875 21.714L100.876 21.7249L100.88 21.7352L100.963 21.7061ZM100.709 18.9227L100.797 18.9147L100.742 18.3105L100.623 18.9057L100.709 18.9227ZM101.789 24.0082L101.877 24.0078V23.9931L101.872 23.9791L101.789 24.0082ZM101.81 28.1938L101.793 28.2794L101.899 28.3004L101.898 28.1935L101.81 28.1938ZM100.963 28.0265L100.881 28.0571L100.898 28.1025L100.946 28.1119L100.963 28.0265ZM100.645 27.1893L100.561 27.1633L100.552 27.1918L100.563 27.22L100.645 27.1893ZM100.963 26.1849L101.048 26.2108L101.052 26.1961L101.051 26.1804L100.963 26.1849ZM100.878 24.4686L100.967 24.4643L100.966 24.4577L100.965 24.4511L100.878 24.4686ZM100.455 22.4386L100.368 22.452L100.368 22.4563L100.455 22.4386ZM100.18 20.7015L100.099 20.6664L100.089 20.6897L100.093 20.7151L100.18 20.7015ZM100.497 19.9865L100.578 20.0213L100.582 20.0127L100.584 20.0033L100.497 19.9865ZM100.031 22.7665L100.117 22.7449L99.9432 22.0695V22.7665H100.031ZM100.349 24.0012L100.437 24.0054L100.438 23.9923L100.434 23.9798L100.349 24.0012ZM100.021 23.6908L99.9327 23.6899V23.6982L99.934 23.7064L100.021 23.6908ZM100.293 25.1873L100.206 25.2027L100.345 25.9558L100.381 25.1913L100.293 25.1873ZM101.719 22.6444L101.634 22.6715L101.638 22.6829L101.645 22.6928L101.719 22.6444ZM101.62 22.3444L101.673 22.2748L101.449 22.1093L101.536 22.3714L101.62 22.3444ZM102.004 23.0665L101.931 23.115L101.964 23.1637L102.022 23.152L102.004 23.0665ZM102.467 22.9723L102.484 23.0577L102.676 23.0187L102.52 22.9025L102.467 22.9723ZM101.81 21.6538L101.748 21.7155L101.762 21.7291L101.78 21.7357L101.81 21.6538ZM103.72 22.3444L103.807 22.355L103.816 22.2864L103.75 22.2626L103.72 22.3444ZM101.807 21.6503L101.869 21.5887L101.719 21.4397V21.6503H101.807ZM101.807 22.1212H101.719V22.1698L101.761 22.1954L101.807 22.1212ZM102.763 22.7037H102.851V22.6551L102.809 22.6295L102.763 22.7037ZM102.763 23.3629H102.675V23.3845L102.685 23.4034L102.763 23.3629ZM103.434 24.6361L103.355 24.6764L103.487 24.9251L103.521 24.6468L103.434 24.6361ZM83.5866 0.302437L83.5375 0.27334L83.4467 0.422884L83.4958 0.451981L83.5866 0.302437ZM97.5629 8.59002L83.5866 0.302437L83.4958 0.451981L97.4723 8.73956L97.5629 8.59002ZM97.9183 8.80084L97.5629 8.59002L97.4723 8.73956L97.8277 8.95038L97.9183 8.80084ZM99.4591 9.32027C98.9399 9.14456 98.4207 8.96882 97.9018 8.79309L97.8446 8.95807C98.3634 9.13381 98.8826 9.30958 99.4018 9.48529L99.4591 9.32027ZM101.684 10.0737C100.943 9.82258 100.201 9.57137 99.4591 9.32027L99.4018 9.48529C100.144 9.73639 100.886 9.98756 101.627 10.2387L101.684 10.0737ZM101.716 10.0845L101.684 10.0737L101.627 10.2387L101.659 10.2495L101.716 10.0845ZM101.771 10.1224L101.745 10.1007L101.63 10.2333L101.656 10.2549L101.771 10.1224ZM103.825 11.8594L101.771 10.1224L101.656 10.2549L103.71 11.9919L103.825 11.8594ZM103.855 11.8851L103.825 11.8594L103.71 11.9919L103.74 12.0176L103.855 11.8851ZM103.894 11.952L103.878 11.9159L103.717 11.9868L103.733 12.0228L103.894 11.952ZM105.25 14.9656L103.894 11.952L103.733 12.0228L105.088 15.0365L105.25 14.9656ZM105.062 15.1436L105.205 15.0807L105.133 14.9214L104.99 14.9842L105.062 15.1436ZM105.22 15.137L105.089 15.0034L104.962 15.1244L105.093 15.2579L105.22 15.137ZM105.413 17.0733L105.244 15.1897L105.068 15.2052L105.238 17.0887L105.413 17.0733ZM105.308 22.7541L105.414 17.0826L105.237 17.0794L105.131 22.751L105.308 22.7541ZM104.598 24.0503L105.297 22.7946L105.142 22.7105L104.443 23.9662L104.598 24.0503ZM104.056 26.2058L104.607 24.0293L104.435 23.9872L103.884 26.1637L104.056 26.2058ZM103.59 25.3119L103.886 26.2117L104.054 26.1578L103.758 25.2578L103.59 25.3119ZM104.164 23.8808L103.592 25.2517L103.755 25.3182L104.327 23.9472L104.164 23.8808ZM103.988 21.9648L104.158 23.9215L104.333 23.9065L104.164 21.9498L103.988 21.9648ZM102.061 21.4548L104.051 22.0408L104.101 21.8736L102.111 21.2877L102.061 21.4548ZM103.456 19.4762L102.016 21.3179L102.155 21.4246L103.595 19.583L103.456 19.4762ZM104.451 21.1222L103.604 19.4898L103.447 19.5694L104.294 21.2017L104.451 21.1222ZM103.841 18.3711L104.285 21.1756L104.46 21.1485L104.015 18.3441L103.841 18.3711ZM103.371 19.1371C103.579 18.896 103.787 18.6548 103.995 18.4142L103.861 18.301C103.653 18.5418 103.445 18.7827 103.237 19.0239L103.371 19.1371ZM102.011 20.7094C102.466 20.1863 102.919 19.6612 103.371 19.1371L103.237 19.0239C102.784 19.5482 102.332 20.0729 101.877 20.596L102.011 20.7094ZM101.961 20.0791L101.857 20.6369L102.031 20.6686L102.135 20.1106L101.961 20.0791ZM101.962 20.073L101.961 20.0791L102.135 20.1106L102.136 20.1043L101.962 20.073ZM102.634 16.479C102.409 17.6759 102.185 18.8755 101.962 20.073L102.136 20.1043C102.359 18.9068 102.582 17.7077 102.808 16.511L102.634 16.479ZM103.561 17.0769L102.778 16.4282L102.664 16.5618L103.448 17.2106L103.561 17.0769ZM103.884 17.9305L103.587 17.1143L103.421 17.1732L103.718 17.9894L103.884 17.9305ZM103.765 17.8517L103.726 17.9134L103.875 18.0065L103.915 17.9449L103.765 17.8517ZM103.804 17.7914L103.765 17.8517L103.915 17.9449L103.953 17.8847L103.804 17.7914ZM103.882 17.6709L103.804 17.7914L103.953 17.8847L104.031 17.7643L103.882 17.6709ZM103.942 17.5765L103.882 17.6709L104.031 17.7643L104.091 17.6699L103.942 17.5765ZM103.992 17.4987L103.942 17.5765L104.091 17.6699L104.141 17.592L103.992 17.4987ZM104.037 17.4286L103.992 17.4987L104.141 17.592L104.186 17.5217L104.037 17.4286ZM103.616 16.0517C103.896 16.6223 103.989 17.1418 104.024 17.4838L104.199 17.4664C104.163 17.1109 104.066 16.57 103.774 15.9756L103.616 16.0517ZM102.869 14.9856C103.09 15.2143 103.377 15.5662 103.616 16.0517L103.774 15.9756C103.526 15.4705 103.227 15.1039 102.997 14.8651L102.869 14.9856ZM101.936 14.4568L102.888 15.0009L102.977 14.8499L102.024 14.3057L101.936 14.4568ZM101.109 14.818L102.012 14.4622L101.947 14.3003L101.043 14.656L101.109 14.818ZM100.166 16.1004L101.147 14.7889L101.005 14.6852L100.024 15.9967L100.166 16.1004ZM99.8839 17.2279L100.18 16.0699L100.01 16.0271L99.7131 17.1852L99.8839 17.2279ZM100.146 16.7679C100.01 16.8924 99.8741 17.0174 99.7381 17.1429L99.8589 17.2703C99.9944 17.145 100.131 17.0198 100.267 16.8953L100.146 16.7679ZM100.146 16.7679L100.265 16.8964L100.267 16.8953L100.146 16.7679ZM100.553 16.3929C100.418 16.5182 100.283 16.6422 100.147 16.7667L100.267 16.8953C100.402 16.7708 100.538 16.6458 100.674 16.5203L100.553 16.3929ZM100.676 17.0864L100.702 16.4603L100.526 16.453L100.499 17.0791L100.676 17.0864ZM100.649 17.7125L100.676 17.0864L100.499 17.0791L100.473 17.7052L100.649 17.7125ZM99.8938 18.8864L100.635 17.7563L100.487 17.6614L99.7455 18.7916L99.8938 18.8864ZM99.7594 20.1879L99.9076 18.8485L99.7318 18.8295L99.5836 20.169L99.7594 20.1879ZM99.6959 21.0844L99.7594 20.1844L99.5836 20.1723L99.52 21.0723L99.6959 21.0844ZM99.6962 23.4432V21.0784H99.5196V23.4432H99.6962ZM99.7844 25.9341L99.6962 23.4401L99.5196 23.4461L99.6078 25.9402L99.7844 25.9341ZM98.1507 24.6586L99.6366 26.0015L99.7557 25.8728L98.2698 24.5299L98.1507 24.6586ZM97.8785 22.9507L98.1231 24.6068L98.2971 24.5816L98.0532 22.9255L97.8785 22.9507ZM96.3057 23.4647L97.9886 23.0224L97.9432 22.8539L96.2607 23.2961L96.3057 23.4647ZM89.864 24.8051L96.3016 23.4658L96.2648 23.295L89.8275 24.6344L89.864 24.8051ZM84.5673 25.7683L89.8614 24.8056L89.8297 24.6341L84.5357 25.5967L84.5673 25.7683ZM79.197 26.6057L84.5653 25.7686L84.5377 25.5963L79.1693 26.4336L79.197 26.6057ZM78.3125 27.868L79.2548 26.5705L79.1115 26.4687L78.1691 27.7664L78.3125 27.868ZM83.1915 27.4755L78.2362 27.7301L78.2455 27.9043L83.2008 27.6497L83.1915 27.4755ZM90.9357 26.5168L83.1852 27.4761L83.2071 27.6491L90.9578 26.6898L90.9357 26.5168ZM98.2511 24.5936L90.9242 26.519L90.9692 26.6876L98.2963 24.7622L98.2511 24.5936ZM99.9845 26.0781L98.3326 24.6131L98.2148 24.7429L99.8667 26.2079L99.9845 26.0781ZM100.646 28.3376L100.011 26.1191L99.8406 26.1666L100.476 28.3851L100.646 28.3376ZM101.866 28.8255L100.596 28.2813L100.526 28.4413L101.797 28.9854L101.866 28.8255ZM102.364 28.2975L101.772 28.8415L101.891 28.9694L102.484 28.4252L102.364 28.2975ZM102.946 27.5109L102.353 28.3096L102.496 28.4129L103.089 27.6141L102.946 27.5109ZM102.487 27.123L102.952 27.6217L103.082 27.5033L102.616 27.0046L102.487 27.123ZM102.421 23.8209L102.463 27.0648L102.64 27.0626L102.597 23.8187L102.421 23.8209ZM103.603 25.5985L102.586 23.7777L102.432 23.862L103.448 25.6828L103.603 25.5985ZM103.903 26.2754L103.606 25.6057L103.445 25.6757L103.741 26.3452L103.903 26.2754ZM103.91 27.1893V26.3104H103.734V27.1893H103.91ZM102.205 30.3488L103.9 27.2305L103.744 27.148L102.05 30.2663L102.205 30.3488ZM93.5726 30.3948H102.128V30.2205H93.5726V30.3948ZM91.7217 27.8674L93.5005 30.358L93.6445 30.2573L91.8659 27.7669L91.7217 27.8674ZM83.0324 28.4483L91.7994 27.9043L91.7881 27.7301L83.0211 28.2743L83.0324 28.4483ZM77.926 28.616L83.0296 28.4484L83.0238 28.2741L77.9205 28.4416L77.926 28.616ZM76.7281 30.3578L77.9951 28.579L77.8512 28.4784L76.5841 30.2575L76.7281 30.3578ZM74.789 30.3948H76.6562V30.2205H74.789V30.3948ZM75.8889 29.5832L74.7453 30.2321L74.8329 30.3832L75.9764 29.7345L75.8889 29.5832ZM77.2199 27.9711L75.8644 29.6036L76.0008 29.7142L77.3561 28.0817L77.2199 27.9711ZM78.0757 26.1068L77.2075 27.9902L77.3683 28.0626L78.2362 26.179L78.0757 26.1068ZM78.068 23.6105V26.1429H78.2444V23.6105H78.068ZM77.4267 19.5186L78.0689 23.624L78.2432 23.5973L77.601 19.4919L77.4267 19.5186ZM78.687 18.2329L77.4517 19.4433L77.5758 19.5672L78.8112 18.3567L78.687 18.2329ZM78.964 19.7943L78.8369 18.2876L78.6613 18.3021L78.7882 19.8089L78.964 19.7943ZM78.9731 19.953L78.9644 19.7967L78.7878 19.8065L78.7967 19.9628L78.9731 19.953ZM98.175 11.497L78.8497 19.8781L78.9207 20.0377L98.2456 11.6567L98.175 11.497ZM95.0285 11.4756L98.205 11.6639L98.2155 11.4898L95.039 11.3014L95.0285 11.4756ZM84.0985 10.4708L95.0257 11.4754L95.0418 11.3017L84.1148 10.2971L84.0985 10.4708ZM75.834 9.183L84.093 10.4701L84.1204 10.2978L75.8617 9.01074L75.834 9.183ZM70.6067 9.18406H75.8479V9.00967H70.6067V9.18406ZM66.1004 9.93626L70.6215 9.18285L70.5919 9.01089L66.0707 9.7643L66.1004 9.93626ZM61.33 11.6588L66.1159 9.93219L66.0552 9.76839L61.2694 11.4948L61.33 11.6588ZM54.251 14.6706L61.3346 11.657L61.2647 11.4968L54.1811 14.5104L54.251 14.6706ZM60.6196 10.7484L54.1713 14.5155L54.261 14.6656L60.7092 10.8985L60.6196 10.7484ZM66.0655 9.48286L60.6442 10.7385L60.6844 10.9083L66.1057 9.65268L66.0655 9.48286ZM71.1567 8.19619L66.0637 9.48327L66.1057 9.65268L71.2004 8.36515L71.1567 8.19619ZM75.9432 8.19347H71.1785V8.36786H75.9432V8.19347ZM84.6111 9.92175L75.9604 8.19518L75.926 8.36617L84.5764 10.0927L84.6111 9.92175ZM99.1077 11.2703L84.602 9.92043L84.5857 10.0941L99.0916 11.4439L99.1077 11.2703ZM79.1504 23.8841L99.1467 11.4309L99.0527 11.2833L79.0561 23.7366L79.1504 23.8841ZM79.2714 25.2171L79.1914 23.8055L79.0152 23.8152L79.095 25.227L79.2714 25.2171ZM83.2645 24.383L79.1669 25.1363L79.1994 25.3078L83.2971 24.5544L83.2645 24.383ZM87.789 23.1289L83.2571 24.3846L83.3046 24.5525L87.8363 23.2968L87.789 23.1289ZM92.1181 22.4154L87.7981 23.1269L87.827 23.299L92.1472 22.5874L92.1181 22.4154ZM96.897 17.4602L92.0688 22.441L92.1964 22.5618L97.0247 17.5808L96.897 17.4602ZM97.6413 22.659L97.0484 17.5106L96.8733 17.5304L97.4662 22.6787L97.6413 22.659ZM97.8937 22.5003L97.5337 22.5839L97.5739 22.7538L97.9339 22.67L97.8937 22.5003ZM98.2296 20.5798L97.8274 22.568L98.0002 22.6023L98.4027 20.6141L98.2296 20.5798ZM98.716 17.507L98.2289 20.5835L98.4033 20.6104L98.8904 17.5339L98.716 17.507ZM99.6733 14.8956L98.7203 17.4907L98.8861 17.5502L99.8391 14.9551L99.6733 14.8956ZM100.853 13.4883L99.6885 14.8696L99.8239 14.9812L100.989 13.5999L100.853 13.4883ZM102.255 12.7144L100.878 13.4678L100.964 13.6204L102.34 12.867L102.255 12.7144ZM103.118 12.8514L102.313 12.7049L102.281 12.8765L103.086 13.023L103.118 12.8514ZM104.123 14.0115L103.17 12.8814L103.034 12.993L103.987 14.1231L104.123 14.0115ZM104.691 14.594L104.118 14.0068L103.992 14.1278L104.564 14.7149L104.691 14.594ZM103.427 12.2005L104.547 14.6899L104.708 14.6191L103.588 12.1297L103.427 12.2005ZM101.452 10.5416L103.45 12.2313L103.565 12.0988L101.567 10.4091L101.452 10.5416ZM99.2886 9.81555C100.019 10.063 100.75 10.3104 101.481 10.5578L101.538 10.3928C100.808 10.1454 100.077 9.898 99.3457 9.65057L99.2886 9.81555ZM99.2769 9.81163L99.2886 9.81555L99.3457 9.65057L99.334 9.64661L99.2769 9.81163ZM99.2743 9.81087L99.2769 9.81163L99.334 9.64661L99.3316 9.64589L99.2743 9.81087ZM99.2723 9.81014L99.2743 9.81087L99.3316 9.64589L99.3295 9.64508L99.2723 9.81014ZM99.2702 9.80936L99.2723 9.81014L99.3295 9.64508L99.3273 9.64435L99.2702 9.80936ZM97.0901 9.07123C97.816 9.31727 98.5431 9.56333 99.2702 9.80936L99.3273 9.64435C98.6002 9.39831 97.8731 9.15229 97.1471 8.90625L97.0901 9.07123ZM94.3116 9.07595H97.1186V8.90154H94.3116V9.07595ZM92.4005 9.48853L94.3303 9.07396L94.2931 8.90353L92.363 9.31812L92.4005 9.48853ZM92.2205 9.08099L92.2958 9.42185L92.4683 9.38481L92.393 9.04395L92.2205 9.08099ZM94.2365 8.55871L92.2882 8.97725L92.3256 9.14769L94.274 8.72912L94.2365 8.55871ZM94.2549 8.55473L94.2365 8.55871L94.274 8.72912L94.2923 8.72514L94.2549 8.55473ZM94.2927 8.55274H94.2736V8.72713H94.2927V8.55274ZM96.7897 8.55274H94.2927V8.72713H96.7897V8.55274ZM83.3631 0.780177L96.7441 8.71472L96.8349 8.56515L83.4537 0.630629L83.3631 0.780177ZM79.5768 1.12223L83.4161 0.792277L83.4009 0.618532L79.5616 0.948482L79.5768 1.12223ZM79.569 1.12288L79.5768 1.12223L79.5616 0.948482L79.5538 0.949139L79.569 1.12288ZM79.5538 1.12321H79.5616V0.948482L79.5538 0.949139V1.12321ZM70.3731 1.12321H79.5538V0.949139L70.3731 0.94881V1.12321ZM68.5036 2.27528L70.4194 1.11028L70.3266 0.961748L68.4112 2.12675L68.5036 2.27528ZM79.8071 2.03011L68.4566 2.11381L68.458 2.28822L79.8086 2.2045L79.8071 2.03011ZM76.2389 7.52354L79.8812 2.16593L79.7345 2.06867L76.0922 7.42631L76.2389 7.52354ZM71.5882 7.39464L76.1624 7.56206L76.1687 7.3878L71.5947 7.22037L71.5882 7.39464ZM67.0287 7.97996L71.6027 7.39398L71.5801 7.22103L67.0061 7.80703L67.0287 7.97996ZM66.0855 7.9807H67.0174V7.80629H66.0855V7.9807ZM49.1443 7.9807H66.0855V7.80629H49.1443V7.9807ZM60.118 2.62459L49.1065 7.81478L49.1823 7.97221L60.1943 2.78201L60.118 2.62459ZM63.8831 2.61609H60.1561V2.79049H63.8831V2.61609ZM69.0256 0.991357L63.8565 2.62021L63.91 2.78637L69.0792 1.15752L69.0256 0.991357ZM60.8853 1.62301L69.0577 1.1615L69.0475 0.98738L60.8751 1.44889L60.8853 1.62301ZM56.0391 4.02554L60.9195 1.61395L60.8408 1.45796L55.9603 3.86956L56.0391 4.02554ZM55.763 3.67457L55.9209 3.98655L56.0785 3.90855L55.9209 3.59657L55.763 3.67457ZM60.7155 1.1299L55.8026 3.55758L55.8814 3.71356L60.7943 1.28589L60.7155 1.1299ZM60.748 1.11383L60.7155 1.1299L60.7943 1.28589L60.8267 1.26981L60.748 1.11383ZM60.8186 1.10271L60.7822 1.10476L60.7924 1.27888L60.8289 1.27683L60.8186 1.10271ZM69.7127 0.600432L60.8186 1.10271L60.8289 1.27683L69.723 0.774551L69.7127 0.600432ZM69.7177 0.600149L69.7127 0.600432L69.723 0.774551L69.7279 0.774266L69.7177 0.600149ZM69.7279 0.600007H69.723V0.774551L69.7279 0.774266V0.600007ZM79.546 0.600007H69.7279V0.774266L79.546 0.774409V0.600007ZM83.4274 0.266138L79.5386 0.600335L79.5538 0.77408L83.4424 0.439885L83.4274 0.266138ZM83.4845 0.261239L83.4274 0.266138L83.4424 0.439885L83.4997 0.434984L83.4845 0.261239ZM56.9602 10.4054L66.1085 7.9777L66.0626 7.80929L56.9144 10.237L56.9602 10.4054ZM49.1852 14.4167L56.9783 10.3985L56.8964 10.2439L49.1035 14.2621L49.1852 14.4167ZM56.0878 10.2041L49.0996 14.2642L49.1891 14.4146L56.1775 10.3545L56.0878 10.2041ZM66.0648 7.80874L56.1117 10.1946L56.1534 10.3641L66.1063 7.97825L66.0648 7.80874ZM82.0266 1.8113L81.3065 2.69027L81.4435 2.80001L82.1635 1.92103L82.0266 1.8113ZM84.0033 2.30188C83.3752 2.12836 82.7468 1.95483 82.1187 1.78215L82.0712 1.95017C82.6996 2.12281 83.3277 2.29632 83.956 2.46984L84.0033 2.30188ZM85.8881 2.82159C85.2598 2.64895 84.6316 2.47542 84.0033 2.30188L83.956 2.46984C84.5842 2.64339 85.2125 2.81693 85.8407 2.98961L85.8881 2.82159ZM90.1402 5.01175C88.7289 4.28627 87.3171 3.55731 85.9053 2.82831L85.8234 2.98289C87.2352 3.71189 88.647 4.44092 90.0591 5.16648L90.1402 5.01175ZM90.7332 6.56633L90.1827 5.05951L90.0167 5.11873L90.5673 6.62555L90.7332 6.56633ZM88.8436 8.21136L90.7071 6.66266L90.5935 6.52921L88.73 8.07792L88.8436 8.21136ZM84.1328 8.48284L88.7917 8.23169L88.7819 8.05757L84.123 8.30871L84.1328 8.48284ZM83.1795 8.7722L84.1538 8.4792L84.1021 8.31234L83.128 8.60534L83.1795 8.7722ZM83.5636 9.08664L83.2247 8.63669L83.0829 8.74085L83.4217 9.1908L83.5636 9.08664ZM81.9704 8.47356L83.4528 9.2165L83.5325 9.06094L82.0501 8.31799L81.9704 8.47356ZM83.3238 6.95332L81.9475 8.33459L82.0731 8.45696L83.4496 7.07569L83.3238 6.95332ZM82.7246 7.05967L83.3811 7.10153L83.3924 6.92748L82.7359 6.88563L82.7246 7.05967ZM82.9008 6.19165L82.6466 6.94506L82.8139 7.00025L83.0679 6.24682L82.9008 6.19165ZM88.2439 6.5928L82.9921 6.13239L82.9766 6.3061L88.2284 6.76651L88.2439 6.5928ZM86.5678 5.32152L88.1772 6.74464L88.2951 6.61467L86.6856 5.19155L86.5678 5.32152ZM82.9086 5.71999L86.6356 5.34328L86.618 5.1698L82.8908 5.5465L82.9086 5.71999ZM81.9189 7.64145L82.9777 5.6742L82.8217 5.5923L81.7629 7.55955L81.9189 7.64145ZM78.5373 7.6877H81.8409V7.51329H78.5373V7.6877ZM81.2987 2.70154L78.4612 7.5569L78.6135 7.64411L81.4512 2.78876L81.2987 2.70154ZM48.435 6.65524H46.0527V6.82965H48.435V6.65524ZM47.8496 8.40749L48.5167 6.77509L48.3531 6.70979L47.686 8.3422L47.8496 8.40749ZM44.0893 8.71297L47.774 8.46184L47.7618 8.28785L44.077 8.53899L44.0893 8.71297ZM44.4523 7.84863L44.0076 8.58113L44.1589 8.67084L44.6036 7.93836L44.4523 7.84863ZM46.2467 7.59768L44.5171 7.80695L44.5386 7.98003L46.268 7.77074L46.2467 7.59768ZM45.9663 6.76075L46.1711 7.70252L46.3436 7.6659L46.1388 6.72413L45.9663 6.76075ZM21.4067 17.0601V16.6415H21.2303V17.0601H21.4067ZM27.1693 16.9729H21.3185V17.1473H27.1693V16.9729ZM26.7035 17.6481L27.232 17.1215L27.1067 16.9987L26.5782 17.5254L26.7035 17.6481ZM49.3179 16.7671L26.6379 17.4996L26.6436 17.6739L49.3236 16.9414L49.3179 16.7671ZM52.8107 19.8661L49.3802 16.7897L49.2616 16.9188L52.6921 19.9954L52.8107 19.8661ZM64.9901 16.6444L52.7288 19.8464L52.774 20.0151L65.0351 16.813L64.9901 16.6444ZM61.4886 18.2534L65.0462 16.8094L64.9791 16.648L61.4215 18.0921L61.4886 18.2534ZM53.4809 26.2079L61.5175 18.2343L61.3924 18.1112L53.356 26.0849L53.4809 26.2079ZM62.0274 22.8628L53.3875 26.0648L53.4494 26.2281L62.0895 23.026L62.0274 22.8628ZM67.8479 15.4961C65.896 17.9619 63.9443 20.4247 61.9889 22.8906L62.128 22.9982C64.0829 20.5323 66.0348 18.0699 67.9865 15.6039L67.8479 15.4961ZM67.9099 15.4632L67.9057 15.4637L67.9279 15.6367L67.9318 15.6362L67.9099 15.4632ZM67.9174 15.6369H67.9209V15.4625H67.9174V15.6369ZM60.0157 16.6265C62.6539 16.2969 65.2914 15.9673 67.9279 15.6367L67.9057 15.4637C65.2691 15.7943 62.6317 16.1239 59.9938 16.4535L60.0157 16.6265ZM60.011 16.6271L60.0157 16.6265L59.9938 16.4535L59.9888 16.4541L60.011 16.6271ZM60.0064 16.6277L60.011 16.6271L59.9888 16.4541L59.9842 16.4547L60.0064 16.6277ZM60.0016 16.6283L60.0064 16.6277L59.9842 16.4547L59.9794 16.4553L60.0016 16.6283ZM59.9938 16.6293L60.0016 16.6283L59.9794 16.4553L59.9716 16.4562L59.9938 16.6293ZM52.9849 17.5058C55.3213 17.2131 57.6576 16.9212 59.9938 16.6293L59.9716 16.4562C57.6358 16.7481 55.2994 17.0401 52.9626 17.3328L52.9849 17.5058ZM50.4202 17.1499L52.9613 17.5057L52.9862 17.333L50.445 16.9772L50.4202 17.1499ZM48.382 15.7963L50.3832 17.1357L50.4821 16.9913L48.4809 15.6519L48.382 15.7963ZM37.4081 15.6858L48.4303 15.8113L48.4324 15.6369L37.4102 15.5114L37.4081 15.6858ZM42.1917 12.6359L37.3633 15.524L37.4548 15.6732L42.283 12.7851L42.1917 12.6359ZM52.1822 9.15415L42.208 12.6282L42.2667 12.7927L52.2407 9.31863L52.1822 9.15415ZM61.2195 7.81076L52.1983 9.15017L52.2246 9.32261L61.2457 7.9832L61.2195 7.81076ZM55.1973 7.98418H61.2327V7.80979H55.1973V7.98418ZM49.8767 8.94544L55.2132 7.98276L55.1814 7.8112L49.8451 8.77387L49.8767 8.94544ZM42.2556 10.5355L49.879 8.945L49.8427 8.77437L42.2191 10.3649L42.2556 10.5355ZM34.7278 15.7329L42.2878 10.5217L42.1869 10.3787L34.6269 15.5899L34.7278 15.7329ZM28.1751 16.4006L34.6862 15.7481L34.6684 15.5746L28.1573 16.2271L28.1751 16.4006ZM28.9144 15.2071L28.0962 16.2608L28.2362 16.367L29.0543 15.3133L28.9144 15.2071ZM33.4664 12.1327L28.9346 15.1882L29.0341 15.3323L33.5659 12.2767L33.4664 12.1327ZM37.7465 10.6158L33.4864 12.1226L33.5459 12.2868L37.8058 10.78L37.7465 10.6158ZM40.8183 9.7213L37.7513 10.6142L37.8011 10.7815L40.8681 9.88858L40.8183 9.7213ZM43.3103 8.77479L40.8116 9.72352L40.8748 9.88635L43.3737 8.9376L43.3103 8.77479ZM41.6056 8.9434H43.342V8.76899H41.6056V8.9434ZM34.7132 9.82168L41.6169 8.9427L41.5943 8.76969L34.6908 9.64867L34.7132 9.82168ZM28.3863 12.7441L34.7393 9.81419L34.6647 9.65618L28.3118 12.5861L28.3863 12.7441ZM21.3624 16.7172L28.3928 12.7408L28.3052 12.5894L21.2747 16.5658L21.3624 16.7172ZM51.23 18.5701L51.2251 18.5666L51.1201 18.7067L51.1247 18.7102L51.23 18.5701ZM51.1114 18.6982L51.1149 18.7017L51.2398 18.5786L51.2363 18.5751L51.1114 18.6982ZM21.6422 18.824L21.4504 18.7623L21.3959 18.9284L21.5877 18.9898L21.6422 18.824ZM21.7031 22.205V18.9068H21.5267V22.205H21.7031ZM22.2524 25.1225L21.7017 22.189L21.5282 22.2208L22.0787 25.1543L22.2524 25.1225ZM20.8047 28.065L22.2448 25.177L22.0863 25.0998L20.6464 27.9878L20.8047 28.065ZM25.9103 26.436L20.7007 27.9427L20.7504 28.1101L25.9597 26.6033L25.9103 26.436ZM28.8422 27.3575L25.9621 26.4367L25.9078 26.6026L28.7879 27.5234L28.8422 27.3575ZM39.7892 27.9394L28.8197 27.3535L28.8101 27.5274L39.7795 28.1136L39.7892 27.9394ZM49.6038 27.2279L39.7778 27.9394L39.7908 28.1134L49.6168 27.4019L49.6038 27.2279ZM53.7422 23.2757L49.5491 27.252L49.6713 27.3778L53.8643 23.4014L53.7422 23.2757ZM37.5063 25.0995L53.8122 23.4253L53.7941 23.2517L37.4882 24.926L37.5063 25.0995ZM27.493 24.0951L37.4884 25.0995L37.5063 24.926L27.511 23.9215L27.493 24.0951ZM22.5509 19.6778L27.4426 24.0728L27.5614 23.9437L22.6696 19.5487L22.5509 19.6778ZM22.6526 19.2369L22.5271 19.5839L22.6934 19.6426L22.8188 19.2954L22.6526 19.2369ZM26.9787 20.5349L22.7628 19.1831L22.7086 19.3492L26.9242 20.7008L26.9787 20.5349ZM35.8103 20.3737L26.9497 20.5307L26.9531 20.705L35.8118 20.5482L35.8103 20.3737ZM44.1185 20.3737H35.8103L35.8118 20.5482H44.1185V20.3737ZM52.4212 19.8542L44.113 20.3738L44.1241 20.548L52.4323 20.0281L52.4212 19.8542ZM51.5583 19.3348L52.3701 20.0081L52.4835 19.8744L51.6717 19.2012L51.5583 19.3348ZM44.0908 19.6934L51.6191 19.3551L51.6109 19.1809L44.0828 19.5193L44.0908 19.6934ZM35.8426 19.7459L44.0872 19.6936L44.0861 19.5191L35.8415 19.5714L35.8426 19.7459ZM26.3768 19.8295L35.8426 19.7459L35.8415 19.5714L26.3753 19.6552L26.3768 19.8295ZM25.0972 19.3851L26.3466 19.8245L26.4057 19.6603L25.1563 19.2207L25.0972 19.3851ZM22.8142 19.1051L25.1157 19.3893L25.1376 19.2163L22.8362 18.932L22.8142 19.1051ZM22.7606 18.9379L22.7421 18.9893L22.9083 19.0478L22.9268 18.9967L22.7606 18.9379ZM26.0702 19.1776L22.852 18.8805L22.8355 19.0541L26.0539 19.3514L26.0702 19.1776ZM51.1716 18.5495L26.0598 19.1773L26.0642 19.3516L51.1747 18.7238L51.1716 18.5495ZM49.7306 17.6882L51.1201 18.7067L51.2251 18.5666L49.8358 17.5481L49.7306 17.6882ZM26.3464 18.2634L49.7854 17.7053L49.7811 17.531L26.3422 18.0891L26.3464 18.2634ZM23.8939 17.7208C24.7045 17.901 25.5152 18.0811 26.3249 18.2613L26.3637 18.0912C25.5539 17.911 24.7433 17.7309 23.9326 17.5507L23.8939 17.7208ZM23.8776 17.7172L23.8939 17.7208L23.9326 17.5507L23.9161 17.5471L23.8776 17.7172ZM21.4297 17.173C22.2449 17.3544 23.0614 17.5358 23.8776 17.7172L23.9161 17.5471C23.1001 17.3657 22.2839 17.1843 21.4684 17.0029L21.4297 17.173ZM21.562 17.514C21.554 17.3702 21.546 17.226 21.5371 17.0827L21.3611 17.0933C21.3698 17.236 21.3778 17.3796 21.3857 17.5235L21.562 17.514ZM21.5866 17.9442C21.5777 17.8015 21.5699 17.6579 21.562 17.514L21.3857 17.5235C21.3937 17.6673 21.4015 17.8115 21.4104 17.9548L21.5866 17.9442ZM21.6185 18.8429L21.5868 17.9464L21.4104 17.9526L21.4421 18.849L21.6185 18.8429ZM21.6231 18.7669L21.5384 18.7592L21.5221 18.9328L21.6068 18.9405L21.6231 18.7669ZM21.7031 18.8691V18.8538H21.5267V18.8691H21.7031ZM21.4122 18.9319L21.604 18.9556L21.6259 18.7826L21.4341 18.7588L21.4122 18.9319ZM21.3759 18.9219L21.3959 18.9284L21.4504 18.7623L21.4304 18.7561L21.3759 18.9219ZM21.4621 18.9041L21.4656 18.9006L21.3407 18.7772L21.3372 18.7807L21.4621 18.9041ZM21.4341 18.7588L21.4106 18.7559L21.3887 18.9289L21.4122 18.9319L21.4341 18.7588ZM26.9627 21.5023L28.7415 23.2847L28.8672 23.1621L27.0883 21.3797L26.9627 21.5023ZM35.4416 21.2109L27.0241 21.3538L27.027 21.5283L35.4447 21.3852L35.4416 21.2109ZM43.6709 21.2667L35.4438 21.2107L35.4425 21.3852L43.6696 21.441L43.6709 21.2667ZM52.0165 20.5311L43.6624 21.2671L43.6781 21.4407L52.0323 20.7047L52.0165 20.5311ZM49.3101 22.5318L52.0738 20.6901L51.975 20.5456L49.2115 22.3872L49.3101 22.5318ZM37.7087 23.8751L49.271 22.5461L49.2506 22.3729L37.6883 23.7018L37.7087 23.8751ZM28.7988 23.3105L37.6929 23.8754L37.7042 23.7015L28.8101 23.1363L28.7988 23.3105ZM60.7003 13.6287L56.0628 15.1355L56.1178 15.3012L60.7554 13.7944L60.7003 13.6287ZM61.5959 14.0743L60.7698 13.6348L60.6859 13.7883L61.5117 14.2278L61.5959 14.0743ZM61.2772 13.3224L61.4676 14.1699L61.64 14.1321L61.4493 13.2845L61.2772 13.3224ZM71.3405 9.83057L61.3346 13.221L61.3919 13.3859L71.3977 9.99555L71.3405 9.83057ZM74.1418 10.1088L71.3783 9.82632L71.3599 9.99982L74.1234 10.2823L74.1418 10.1088ZM79.2266 12.945L74.176 10.1197L74.0891 10.2715L79.1397 13.0968L79.2266 12.945ZM75.3339 11.3419L79.1458 13.0999L79.2207 12.9419L75.4088 11.1839L75.3339 11.3419ZM74.0098 11.4128L75.3756 11.35L75.3671 11.1758L74.0013 11.2386L74.0098 11.4128ZM72.6348 11.8483L74.0324 11.4088L73.9787 11.2426L72.581 11.6821L72.6348 11.8483ZM69.9732 14.7436L72.6731 11.8241L72.5427 11.7064L69.8426 14.6259L69.9732 14.7436ZM69.5024 17.3916L69.9947 14.7002L69.8211 14.6692L69.3287 17.3606L69.5024 17.3916ZM71.0939 14.6272L69.3412 17.3291L69.4896 17.4232L71.2421 14.7213L71.0939 14.6272ZM73.6068 12.3083L71.1079 14.6104L71.2278 14.738L73.7267 12.4359L73.6068 12.3083ZM75.4716 11.9516L73.6505 12.2864L73.683 12.4579L75.5042 12.123L75.4716 11.9516ZM77.0553 12.7982L75.5305 11.9611L75.4451 12.1135L76.9699 12.9506L77.0553 12.7982ZM78.2288 14.4572L77.0853 12.8248L76.9399 12.9241L78.0835 14.5564L78.2288 14.4572ZM78.8362 18.166L78.2432 14.4931L78.0689 14.5206L78.6618 18.1935L78.8362 18.166ZM77.1622 20.0073L78.8139 18.2389L78.6841 18.1206L77.0323 19.8889L77.1622 20.0073ZM74.1312 21.5741L77.1383 20.0255L77.0564 19.8709L74.0493 21.4195L74.1312 21.5741ZM76.6025 17.9297L74.0189 21.4456L74.1616 21.5482L76.7451 18.0321L76.6025 17.9297ZM76.8845 16.7466L76.588 17.9604L76.7596 18.0014L77.0561 16.7875L76.8845 16.7466ZM74.5463 15.1213L76.918 16.8374L77.0225 16.6967L74.6508 14.9806L74.5463 15.1213ZM76.3219 17.2601L74.6702 14.9999L74.5268 15.102L76.1787 17.3623L76.3219 17.2601ZM75.8656 18.4335L76.3314 17.3452L76.1691 17.2772L75.7032 18.3655L75.8656 18.4335ZM74.194 20.0524L75.8457 18.4619L75.7229 18.337L74.0712 19.9276L74.194 20.0524ZM73.0268 22.5382L74.2127 20.0268L74.0524 19.9532L72.8666 22.4646L73.0268 22.5382ZM72.4787 20.3819L72.8599 22.5165L73.0335 22.4863L72.6524 20.3516L72.4787 20.3819ZM73.8143 15.4052L72.4802 20.3442L72.6509 20.3893L73.985 15.4501L73.8143 15.4052ZM73.0995 15.5566L73.9042 15.5147L73.8951 15.3406L73.0904 15.3824L73.0995 15.5566ZM71.9951 15.8468L73.1176 15.5538L73.0724 15.3852L71.9501 15.6782L71.9951 15.8468ZM70.4609 17.0859L72.0281 15.8302L71.9171 15.6948L70.3501 16.9505L70.4609 17.0859ZM69.7247 18.8518L70.487 17.0519L70.324 16.9845L69.5617 18.7844L69.7247 18.8518ZM69.154 20.7109L69.7275 18.8433L69.5589 18.7927L68.985 20.6603L69.154 20.7109ZM68.7478 24.88L69.1572 20.694L68.9819 20.6772L68.5724 24.8633L68.7478 24.88ZM68.8416 25.7784L68.7478 24.8629L68.5724 24.8804L68.6659 25.7959L68.8416 25.7784ZM69.6206 27.998L68.8372 25.7587L68.6706 25.8156L69.454 28.055L69.6206 27.998ZM71.2801 30.1077L69.6072 27.9731L69.4673 28.0799L71.1404 30.2146L71.2801 30.1077ZM73.9522 30.3884L71.2204 30.0745L71.2 30.2477L73.9318 30.5616L73.9522 30.3884ZM94.3985 30.3878H73.942V30.5622H94.3985V30.3878ZM107.253 30.4088L94.3985 30.3878V30.5622L107.253 30.5832V30.4088ZM73.7137 32.3515L107.257 30.583L107.248 30.409L73.7045 32.1774L73.7137 32.3515ZM70.5083 33.0091L73.7271 32.3499L73.6911 32.179L70.4722 32.8383L70.5083 33.0091ZM52.6269 32.7911L70.4892 33.0109L70.4913 32.8364L52.6289 32.6166L52.6269 32.7911ZM36.3145 32.6969L52.6269 32.7911L52.6289 32.6166L36.3154 32.5226L36.3145 32.6969ZM31.8919 33.0106L36.3212 32.6967L36.3086 32.5227L31.8793 32.8366L31.8919 33.0106ZM28.0774 32.265L31.8684 33.0091L31.9027 32.8381L28.1117 32.094L28.0774 32.265ZM26.6496 32.3515L28.0999 32.2665L28.0893 32.0923L26.6392 32.1774L26.6496 32.3515ZM18.5413 32.069L26.6412 32.3515L26.6475 32.1772L18.5474 31.8948L18.5413 32.069ZM25.9403 31.4554L18.5391 31.8948L18.5496 32.069L25.9508 31.6295L25.9403 31.4554ZM23.8631 29.7435L25.8854 31.6061L26.0057 31.4786L23.9834 29.6159L23.8631 29.7435ZM21.3798 28.3109L23.8787 29.7551L23.9678 29.6045L21.4689 28.1605L21.3798 28.3109ZM28.416 28.4206L21.4278 28.1486L21.4209 28.3229L28.4091 28.595L28.416 28.4206ZM27.9385 28.0004L28.3408 28.5583L28.4845 28.4573L28.0821 27.8991L27.9385 28.0004ZM37.0698 28.5221L28.0167 27.8628L28.0037 28.0366L37.0566 28.6959L37.0698 28.5221ZM49.7361 28.3474L37.062 28.5217L37.0644 28.6962L49.7385 28.5217L49.7361 28.3474ZM53.7926 27.8632L49.7268 28.3479L49.748 28.5212L53.8137 28.0363L53.7926 27.8632ZM67.3787 24.8022L53.7835 27.8647L53.8228 28.0348L67.4182 24.9722L67.3787 24.8022ZM67.6583 25.7815L67.4853 24.8712L67.3116 24.9032L67.4847 25.8137L67.6583 25.7815ZM67.8553 25.7035L67.5694 25.7105L67.5736 25.8848L67.8594 25.8778L67.8553 25.7035ZM68.3673 22.8399L67.7708 25.7734L67.9439 25.8078L68.5403 22.8744L68.3673 22.8399ZM68.542 22.8528L68.5416 22.8484L68.366 22.8659L68.3667 22.8703L68.542 22.8528ZM68.4538 18.4501L68.366 22.8598L68.5424 22.8633L68.6302 18.4534L68.4538 18.4501ZM68.6902 14.4599L68.4538 18.4468L68.6302 18.4569L68.8668 14.47L68.6902 14.4599ZM72.2112 11.0538L68.7171 14.4023L68.8399 14.5276L72.334 11.1791L72.2112 11.0538ZM69.8355 11.4439L72.2814 11.2032L72.2638 11.0297L69.8179 11.2703L69.8355 11.4439ZM62.6719 14.8436L69.8648 11.4357L69.7886 11.2785L62.5957 14.6863L62.6719 14.8436ZM56.0963 15.3054L62.6398 14.8519L62.6278 14.6779L56.0843 15.1314L56.0963 15.3054ZM36.0442 31.6227L35.2535 31.65L35.2596 31.8243L36.0497 31.7971L36.0442 31.6227ZM43.0968 31.4237L36.0442 31.6227L36.0497 31.7971L43.1009 31.5982L43.0968 31.4237ZM51.5792 31.2669L43.0968 31.4237L43.1009 31.5982L51.5813 31.4412L51.5792 31.2669ZM64.1581 31.2041L51.5792 31.2669L51.5813 31.4412L64.1589 31.3784L64.1581 31.2041ZM62.3754 29.0872L64.0879 31.3436L64.2291 31.2389L62.5166 28.9825L62.3754 29.0872ZM62.2653 29.1487L62.4588 29.1211L62.4336 28.9486L62.2399 28.976L62.2653 29.1487ZM52.7079 29.7669L62.2583 29.1495L62.247 28.9753L52.6962 29.5928L52.7079 29.7669ZM37.9536 29.9344L52.703 29.7671L52.701 29.5926L37.9516 29.7601L37.9536 29.9344ZM35.3076 31.8081L38.0037 29.9184L37.9016 29.7761L35.2055 31.666L35.3076 31.8081ZM71.0955 17.5019L71.5191 16.7904L71.3674 16.7019L70.9438 17.4135L71.0955 17.5019ZM72.2419 19.6577L71.0983 17.4184L70.941 17.497L72.0844 19.7363L72.2419 19.6577ZM72.4787 17.4632L72.0763 19.6817L72.2501 19.7124L72.6524 17.494L72.4787 17.4632ZM73.0767 16.0018L72.4837 17.4458L72.6474 17.5114L73.2403 16.0674L73.0767 16.0018ZM72.3051 16.267L73.1732 16.1205L73.1436 15.9486L72.2755 16.0951L72.3051 16.267ZM71.4926 16.8184L72.3396 16.2533L72.2408 16.1088L71.3939 16.6739L71.4926 16.8184ZM69.7049 21.0981C69.4933 21.9075 69.2819 22.7168 69.0708 23.526L69.2415 23.5697C69.4525 22.7604 69.6639 21.9513 69.8757 21.1417L69.7049 21.0981ZM69.7075 21.0894L69.7049 21.0981L69.8757 21.1417L69.8783 21.133L69.7075 21.0894ZM70.5037 18.0394C70.2389 19.0569 69.9732 20.0732 69.7075 21.0894L69.8783 21.133C70.144 20.117 70.4097 19.1005 70.6745 18.0829L70.5037 18.0394ZM71.9935 21.3514C71.553 20.2435 71.1129 19.1364 70.6714 18.0291L70.5068 18.0931C70.9484 19.2001 71.3885 20.3072 71.8289 21.4152L71.9935 21.3514ZM72.796 23.3694C72.5282 22.6963 72.2607 22.0237 71.9935 21.3514L71.8289 21.4152C72.0965 22.0875 72.3637 22.76 72.6316 23.4333L72.796 23.3694ZM73.2097 23.6442L72.765 23.3303L72.6626 23.4723L73.1073 23.7862L73.2097 23.6442ZM77.9253 23.7328L73.1606 23.628L73.1564 23.8024L77.921 23.9071L77.9253 23.7328ZM77.8417 25.378L78.0111 23.8292L77.8352 23.8105L77.6659 25.3592L77.8417 25.378ZM77.4572 26.6699L77.8386 25.3933L77.669 25.3439L77.2879 26.6204L77.4572 26.6699ZM76.5185 28.4026L77.4502 26.6865L77.2949 26.604L76.3633 28.3201L76.5185 28.4026ZM75.1181 27.5109L76.3886 28.4317L76.4931 28.291L75.2226 27.3702L75.1181 27.5109ZM72.2006 23.9796L75.1018 27.4956L75.2387 27.3853L72.3375 23.8694L72.2006 23.9796ZM70.8224 22.1986L72.1988 23.9774L72.3394 23.8716L70.9629 22.0927L70.8224 22.1986ZM70.7687 24.6433L70.9805 22.1529L70.8048 22.1384L70.593 24.6287L70.7687 24.6433ZM70.5767 25.6155L70.7674 24.6529L70.5943 24.6193L70.4038 25.582L70.5767 25.6155ZM69.9154 27.2222L70.5717 25.6317L70.4088 25.5658L69.7523 27.1563L69.9154 27.2222ZM68.7365 24.9008L69.7529 27.2239L69.9146 27.1546L68.8981 24.8316L68.7365 24.9008ZM69.0708 23.526L68.7319 24.8449L68.9028 24.8878L69.2415 23.5697L69.0708 23.526ZM73.4451 22.9664L73.9109 22.2339L73.7614 22.1411L73.2955 22.8736L73.4451 22.9664ZM77.7598 23.126L73.3763 22.8329L73.3643 23.0069L77.7478 23.3L77.7598 23.126ZM77.138 20.5929L77.6673 23.23L77.8402 23.196L77.3108 20.559L77.138 20.5929ZM73.8742 22.2661L77.2625 20.6546L77.1863 20.4974L73.798 22.1089L73.8742 22.2661ZM71.2078 23.7445L70.8902 25.9212L71.0646 25.9461L71.3822 23.7696L71.2078 23.7445ZM71.7754 24.4699L71.3729 23.7164L71.2169 23.7978L71.6193 24.5512L71.7754 24.4699ZM71.7856 26.9382V24.5105H71.6092V26.9382H71.7856ZM71.211 29.0745L71.7828 26.9608L71.6119 26.9157L71.0401 29.0294L71.211 29.0745ZM70.0981 27.9779L71.0581 29.108L71.193 28.9959L70.233 27.8658L70.0981 27.9779ZM70.4896 26.8951C70.3547 27.2266 70.2196 27.5578 70.0836 27.889L70.2474 27.9545C70.3833 27.6232 70.5182 27.2916 70.6532 26.9602L70.4896 26.8951ZM70.8954 25.9008C70.7596 26.2324 70.6247 26.5639 70.4896 26.8951L70.6532 26.9602C70.7881 26.6289 70.9234 26.2977 71.0592 25.9663L70.8954 25.9008ZM74.1343 26.9879L72.5249 25.2298L72.3944 25.3469L74.0037 27.1048L74.1343 26.9879ZM74.1573 29.9554V27.0464H73.9809V29.9554H74.1573ZM72.8793 29.9348C73.2729 29.9703 73.6663 30.0058 74.061 30.0421L74.0773 29.8685C73.6826 29.8321 73.289 29.7965 72.8953 29.761L72.8793 29.9348ZM72.8771 29.9346L72.8793 29.9348L72.8953 29.761L72.8927 29.7608L72.8771 29.9346ZM72.8716 29.9341L72.8771 29.9346L72.8927 29.7608L72.8879 29.7603L72.8716 29.9341ZM72.8669 29.9337L72.8716 29.9341L72.8879 29.7603L72.8829 29.7599L72.8669 29.9337ZM72.8649 29.9335L72.8829 29.7599L72.8806 29.7597L72.8649 29.9335ZM71.6822 29.8258C72.0765 29.8623 72.4713 29.898 72.8649 29.9335L72.8806 29.7597C72.4871 29.7244 72.0926 29.6887 71.6983 29.6522L71.6822 29.8258ZM72.034 27.6381C71.9038 28.3691 71.7591 29.0651 71.6045 29.7192L71.7761 29.759C71.9319 29.1016 72.0767 28.4024 72.2077 27.6684L72.034 27.6381ZM72.3722 25.2788C72.2875 26.0271 72.1784 26.8133 72.034 27.6381L72.2077 27.6684C72.3527 26.8399 72.4624 26.0496 72.5471 25.2981L72.3722 25.2788ZM74.9372 29.6209L75.2761 28.4908L75.1068 28.4413L74.7679 29.5714L74.9372 29.6209ZM75.8344 28.6914L74.7968 29.5285L74.9083 29.6636L75.946 28.8266L75.8344 28.6914ZM75.1568 28.5462L75.8557 28.8393L75.9248 28.6787L75.2261 28.3857L75.1568 28.5462ZM101.032 15.7542L101.54 15.1264L101.403 15.0174L100.894 15.6452L101.032 15.7542ZM101.559 20.5462L101.051 15.6908L100.875 15.7087L101.384 20.564L101.559 20.5462ZM101.871 17.2775L101.384 20.5423L101.559 20.5679L102.046 17.303L101.871 17.2775ZM102.296 15.4914L101.873 17.2703L102.044 17.3103L102.468 15.5314L102.296 15.4914ZM103.502 16.453L102.443 15.4485L102.321 15.5743L103.38 16.5788L103.502 16.453ZM102.165 15.0846L103.372 16.5705L103.51 16.4613L102.303 14.9754L102.165 15.0846ZM101.476 15.1589L102.239 15.1171L102.229 14.943L101.467 14.9848L101.476 15.1589ZM101.051 21.6982L100.797 18.9147L100.621 18.9306L100.875 21.714L101.051 21.6982ZM101.872 23.9791L101.046 21.677L100.88 21.7352L101.706 24.0374L101.872 23.9791ZM101.898 28.1935L101.877 24.0078L101.701 24.0087L101.722 28.1944L101.898 28.1935ZM100.946 28.1119L101.793 28.2794L101.827 28.1084L100.981 27.9409L100.946 28.1119ZM100.563 27.22L100.881 28.0571L101.046 27.9958L100.728 27.1587L100.563 27.22ZM100.879 26.1587L100.561 27.1633L100.73 27.2154L101.048 26.2108L100.879 26.1587ZM100.79 24.473L100.875 26.1891L101.051 26.1804L100.967 24.4643L100.79 24.473ZM100.368 22.4563L100.792 24.4862L100.965 24.4511L100.541 22.4209L100.368 22.4563ZM100.093 20.7151L100.368 22.452L100.542 22.4252L100.267 20.6881L100.093 20.7151ZM100.416 19.9517C100.311 20.1921 100.205 20.4291 100.099 20.6664L100.26 20.7367C100.366 20.4996 100.472 20.2623 100.578 20.0213L100.416 19.9517ZM100.623 18.9057C100.552 19.2581 100.482 19.6139 100.411 19.9698L100.584 20.0033C100.654 19.6476 100.725 19.2918 100.796 18.9396L100.623 18.9057ZM99.946 22.788L100.264 24.0227L100.434 23.9798L100.117 22.7449L99.946 22.788ZM100.12 22.7709V22.7665H99.9432V22.77L100.12 22.7709ZM100.109 23.6917L100.12 22.7709L99.9432 22.77L99.9327 23.6899L100.109 23.6917ZM100.244 24.4237C100.199 24.1744 100.154 23.9248 100.108 23.6751L99.934 23.7064C99.9799 23.9557 100.025 24.205 100.07 24.4544L100.244 24.4237ZM100.379 25.1716C100.334 24.9224 100.289 24.6731 100.244 24.4237L100.07 24.4544C100.115 24.7037 100.16 24.9533 100.206 25.2027L100.379 25.1716ZM100.261 23.9971L100.204 25.183L100.381 25.1913L100.437 24.0054L100.261 23.9971ZM101.802 22.6174L101.704 22.3175L101.536 22.3714L101.634 22.6715L101.802 22.6174ZM102.078 23.0179L101.792 22.5958L101.645 22.6928L101.931 23.115L102.078 23.0179ZM102.449 22.8869L101.987 22.9811L102.022 23.152L102.484 23.0577L102.449 22.8869ZM101.567 22.4141L102.414 23.0421L102.52 22.9025L101.673 22.2748L101.567 22.4141ZM101.78 21.7357L103.689 22.4263L103.75 22.2626L101.841 21.5719L101.78 21.7357ZM101.744 21.712L101.748 21.7155L101.873 21.5922L101.869 21.5887L101.744 21.712ZM101.895 22.1212V21.6503H101.719V22.1212H101.895ZM102.809 22.6295L101.853 22.047L101.761 22.1954L102.717 22.7779L102.809 22.6295ZM102.851 23.3629V22.7037H102.675V23.3629H102.851ZM103.284 24.1621C103.137 23.883 102.99 23.6028 102.841 23.3224L102.685 23.4034C102.834 23.6832 102.981 23.9632 103.128 24.2423L103.284 24.1621ZM103.512 24.5958C103.436 24.4516 103.36 24.3069 103.284 24.1621L103.128 24.2423C103.203 24.3872 103.28 24.5321 103.355 24.6764L103.512 24.5958ZM103.632 22.3337L103.346 24.6254L103.521 24.6468L103.807 22.355L103.632 22.3337Z" fill="#27174D"/>
</g>
</svg>
