<svg width="21" height="19" viewBox="0 0 21 19" fill="none" xmlns="http://www.w3.org/2000/svg">
<path d="M9.59033 0.992449C9.94625 0.212878 11.0538 0.212878 11.4097 0.992449L13.4897 5.5483C13.6353 5.86718 13.9372 6.08655 14.2855 6.12647L19.2611 6.69685C20.1125 6.79445 20.4548 7.84775 19.8233 8.42716L16.1332 11.8132C15.8749 12.0502 15.7596 12.4052 15.8293 12.7487L16.8243 17.6571C16.9946 18.497 16.0986 19.1479 15.3525 18.7265L10.9918 16.2633C10.6866 16.0909 10.3134 16.0909 10.0082 16.2633L5.64754 18.7265C4.90138 19.1479 4.00539 18.497 4.17566 17.6571L5.17075 12.7487C5.2404 12.4052 5.12507 12.0502 4.86678 11.8132L1.17668 8.42716C0.545247 7.84775 0.887485 6.79445 1.73889 6.69685L6.71452 6.12647C7.06278 6.08655 7.36471 5.86718 7.5103 5.5483L9.59033 0.992449Z" fill="#27174D"/>
</svg>
