<svg width="24" height="24" viewBox="0 0 24 24" fill="none" xmlns="http://www.w3.org/2000/svg">
<path fill-rule="evenodd" clip-rule="evenodd" d="M5.16864 13.7193C5.21966 13.735 5.27169 13.7473 5.32437 13.7559C5.65815 14.5433 5.99006 15.3315 6.32009 16.1205C6.91351 17.5402 7.51165 19.0024 7.6426 19.4229C7.80659 19.9402 7.97883 20.2922 8.16759 20.5331C8.26552 20.6559 8.37759 20.7646 8.50973 20.8473C8.57911 20.8894 8.65264 20.9242 8.72916 20.9512C9.10668 21.0929 9.45118 21.0339 9.66707 20.9618C9.79383 20.9187 9.91441 20.8591 10.0257 20.7847L10.0316 20.7823L13.3656 18.7012L17.2175 21.6563C17.2742 21.6996 17.3355 21.7362 17.4016 21.7662C17.8641 21.967 18.3124 22.0378 18.7347 21.9811C19.1547 21.9221 19.4886 21.7461 19.7375 21.5465C20.0231 21.3156 20.2509 21.0212 20.4029 20.6866L20.4135 20.6607L20.4171 20.6512L20.4194 20.6465V20.6441L20.4206 20.6429C20.4399 20.5917 20.4557 20.5392 20.4678 20.4859L23.9835 2.73978C23.9932 2.68278 23.9987 2.62514 24 2.56734C24 2.04765 23.8042 1.55277 23.3452 1.25395C22.9512 0.997649 22.5135 0.985838 22.2363 1.0071C21.939 1.03072 21.6629 1.10395 21.4777 1.163C21.3742 1.19646 21.2719 1.23349 21.1709 1.27403L21.158 1.27993L1.43941 9.02324L1.43705 9.02443C1.37019 9.04861 1.30445 9.0758 1.24003 9.10592C1.08361 9.17618 0.933607 9.25997 0.791724 9.35632C0.523918 9.53939 -0.0930975 10.0425 0.0119013 10.874C0.0944847 11.5355 0.547513 11.9429 0.824757 12.139C0.975767 12.2465 1.1197 12.3232 1.22588 12.374C1.27307 12.3977 1.37453 12.4378 1.41818 12.4567L1.42998 12.4603L5.16864 13.7193ZM21.8481 2.90986H21.8458L21.8151 2.92285L2.07295 10.6768L2.04227 10.6886L2.03047 10.6921C1.99433 10.7061 1.95889 10.7219 1.9243 10.7394C1.95728 10.7579 1.99114 10.7749 2.02575 10.7902L5.73257 12.0398C5.79802 12.0641 5.86118 12.0941 5.92133 12.1295L18.1637 4.95434L18.1755 4.94844C18.2233 4.91995 18.2721 4.89316 18.3218 4.86812C18.4067 4.82442 18.5424 4.76064 18.6958 4.7134C18.802 4.68033 19.117 4.58702 19.4567 4.69686C19.6372 4.75324 19.7981 4.85955 19.9209 5.00354C20.0436 5.14753 20.1232 5.32332 20.1504 5.51064C20.1944 5.67452 20.1956 5.84695 20.154 6.01143C20.0714 6.33624 19.8449 6.58899 19.6384 6.78269C19.4615 6.94805 17.1656 9.1638 14.9017 11.3512L11.819 14.3276L11.2704 14.8591L18.1979 20.1764C18.2915 20.2155 18.393 20.2317 18.4941 20.2236C18.5449 20.2167 18.5928 20.1954 18.6321 20.1622C18.6798 20.1217 18.7209 20.0739 18.7536 20.0205L18.756 20.0193L22.1655 2.8071C22.0582 2.83354 21.953 2.86748 21.8505 2.90867L21.8481 2.90986ZM11.8661 17.5484L10.4835 16.4878L10.1484 18.6197L11.8661 17.5484ZM9.21522 14.3831L10.5896 13.0543L13.6724 10.0756L14.8203 8.96773L7.12822 13.476L7.16952 13.5729C7.65464 14.7202 8.13442 15.8698 8.60883 17.0217L8.9427 14.8957C8.97318 14.6986 9.0692 14.5188 9.21522 14.3831Z" fill="white"/>
</svg>
