<svg width="32" height="29" viewBox="0 0 32 29" fill="none" xmlns="http://www.w3.org/2000/svg">
<path fill-rule="evenodd" clip-rule="evenodd" d="M6.89152 17.2921C6.95955 17.313 7.02892 17.3294 7.09916 17.3409C7.5442 18.3908 7.98674 19.4417 8.42678 20.4937C9.21801 22.3866 10.0155 24.3362 10.1901 24.8968C10.4088 25.5866 10.6384 26.0559 10.8901 26.3771C11.0207 26.5409 11.1701 26.6858 11.3463 26.796C11.4388 26.8522 11.5369 26.8986 11.6389 26.9346C12.1422 27.1236 12.6016 27.0449 12.8894 26.9488C13.0584 26.8913 13.2192 26.8119 13.3676 26.7126L13.3755 26.7094L17.8208 23.9346L22.9567 27.8748C23.0322 27.9325 23.114 27.9813 23.2021 28.0212C23.8187 28.2889 24.4165 28.3834 24.9796 28.3078C25.5396 28.2291 25.9848 27.9945 26.3167 27.7283C26.6975 27.4205 27.0013 27.0279 27.2039 26.5819L27.218 26.5472L27.2227 26.5346L27.2259 26.5283V26.5252L27.2275 26.5236C27.2533 26.4553 27.2743 26.3853 27.2904 26.3141L31.978 2.65271C31.9909 2.57671 31.9983 2.49987 32 2.42279C32 1.72987 31.7389 1.07003 31.127 0.671606C30.6016 0.329873 30.018 0.314125 29.6483 0.342472C29.2519 0.373968 28.8839 0.471606 28.6369 0.550346C28.4989 0.594957 28.3625 0.64433 28.2279 0.698378L28.2106 0.706251L1.91922 11.0307L1.91607 11.0322C1.82692 11.0645 1.73926 11.1007 1.65338 11.1409C1.44482 11.2346 1.24481 11.3463 1.05563 11.4748C0.698557 11.7189 -0.12413 12.3897 0.0158684 13.4984C0.12598 14.3803 0.730017 14.9236 1.09968 15.185C1.30102 15.3283 1.49293 15.4307 1.6345 15.4984C1.69742 15.5299 1.8327 15.5834 1.8909 15.6086L1.90663 15.6133L6.89152 17.2921ZM29.1308 2.87948H29.1277L29.0868 2.8968L2.76393 13.2354L2.72303 13.2511L2.7073 13.2559C2.6591 13.2745 2.61186 13.2955 2.56573 13.3189C2.60971 13.3436 2.65486 13.3662 2.70101 13.3866L7.64342 15.0527C7.73069 15.0851 7.81491 15.1251 7.8951 15.1724L24.2183 5.60547L24.234 5.59759C24.2978 5.55961 24.3628 5.52389 24.4291 5.49051C24.5423 5.43224 24.7232 5.3472 24.9277 5.28421C25.0693 5.24011 25.4893 5.1157 25.9423 5.26216C26.183 5.33733 26.3975 5.47908 26.5612 5.67106C26.7248 5.86305 26.8309 6.09744 26.8672 6.3472C26.9258 6.56571 26.9275 6.7956 26.872 7.01492C26.7619 7.44799 26.4598 7.785 26.1846 8.04327C25.9486 8.26374 22.8875 11.2181 19.8689 14.1346L15.7586 18.1031L15.0272 18.8118L24.2639 25.9015C24.3886 25.9537 24.524 25.9753 24.6587 25.9645C24.7266 25.9552 24.7904 25.9268 24.8428 25.8826C24.9065 25.8287 24.9611 25.7649 25.0048 25.6937L25.0079 25.6921L29.554 2.74247C29.411 2.77772 29.2706 2.82298 29.134 2.87791L29.1308 2.87948ZM15.8215 22.3976L13.978 20.9834L13.5312 23.826L15.8215 22.3976ZM12.287 18.1771L14.1195 16.4055L18.2298 12.4338L19.7604 10.9567L9.5043 16.9677L9.55936 17.0968C10.2062 18.6266 10.8459 20.1595 11.4784 21.6952L11.9236 18.8606C11.9642 18.5978 12.0923 18.358 12.287 18.1771Z" fill="#27174D"/>
</svg>
