<svg width="24" height="24" viewBox="0 0 24 24" fill="none" xmlns="http://www.w3.org/2000/svg">
<path d="M24 11.4181C24 11.3538 24 11.2807 23.9973 11.1959C23.9946 10.9591 23.9893 10.693 23.9839 10.4094C23.9625 9.59357 23.925 8.7807 23.8661 8.01462C23.7857 6.95906 23.6679 6.07895 23.5071 5.41813C23.3375 4.72851 23.0051 4.09956 22.543 3.59414C22.081 3.08873 21.5055 2.72455 20.8741 2.53801C20.1161 2.31579 18.6321 2.17836 16.5429 2.09357C15.5491 2.05263 14.4857 2.02632 13.4223 2.0117C13.05 2.00585 12.7045 2.00292 12.3938 2H11.6062C11.2955 2.00292 10.95 2.00585 10.5777 2.0117C9.51429 2.02632 8.45089 2.05263 7.45714 2.09357C5.36786 2.18129 3.88125 2.31871 3.12589 2.53801C2.49429 2.72409 1.91858 3.08811 1.45646 3.5936C0.994336 4.09909 0.662036 4.72828 0.492857 5.41813C0.329464 6.07895 0.214286 6.95906 0.133929 8.01462C0.075 8.7807 0.0375 9.59357 0.0160714 10.4094C0.00803567 10.693 0.0053571 10.9591 0.00267853 11.1959C0.00267853 11.2807 0 11.3538 0 11.4181V11.5819C0 11.6462 -4.09117e-08 11.7193 0.00267853 11.8041C0.0053571 12.0409 0.0107142 12.307 0.0160714 12.5906C0.0375 13.4064 0.075 14.2193 0.133929 14.9854C0.214286 16.0409 0.332143 16.9211 0.492857 17.5819C0.835714 18.9825 1.84286 20.0877 3.12589 20.462C3.88125 20.6842 5.36786 20.8216 7.45714 20.9064C8.45089 20.9474 9.51429 20.9737 10.5777 20.9883C10.95 20.9942 11.2955 20.9971 11.6062 21H12.3938C12.7045 20.9971 13.05 20.9942 13.4223 20.9883C14.4857 20.9737 15.5491 20.9474 16.5429 20.9064C18.6321 20.8187 20.1187 20.6813 20.8741 20.462C22.1571 20.0877 23.1643 18.9854 23.5071 17.5819C23.6705 16.9211 23.7857 16.0409 23.8661 14.9854C23.925 14.2193 23.9625 13.4064 23.9839 12.5906C23.992 12.307 23.9946 12.0409 23.9973 11.8041C23.9973 11.7193 24 11.6462 24 11.5819V11.4181ZM22.0714 11.5702C22.0714 11.6316 22.0714 11.6988 22.0688 11.7778C22.0661 12.0058 22.0607 12.2573 22.0554 12.5292C22.0366 13.307 21.9991 14.0848 21.9429 14.807C21.8705 15.7485 21.7688 16.5205 21.6429 17.038C21.4768 17.7135 20.9893 18.2485 20.3732 18.4269C19.8107 18.5906 18.3937 18.7222 16.4679 18.8012C15.4929 18.8421 14.4429 18.8684 13.3955 18.883C13.0286 18.8889 12.6884 18.8918 12.383 18.8918H11.617L10.6045 18.883C9.55714 18.8684 8.50982 18.8421 7.53214 18.8012C5.60625 18.7193 4.18661 18.5906 3.62679 18.4269C3.01071 18.2456 2.52321 17.7135 2.35714 17.038C2.23125 16.5205 2.12946 15.7485 2.05714 14.807C2.00089 14.0848 1.96607 13.307 1.94464 12.5292C1.93661 12.2573 1.93393 12.0029 1.93125 11.7778C1.93125 11.6988 1.92857 11.6287 1.92857 11.5702V11.4298C1.92857 11.3684 1.92857 11.3012 1.93125 11.2222C1.93393 10.9942 1.93929 10.7427 1.94464 10.4708C1.96339 9.69298 2.00089 8.9152 2.05714 8.19298C2.12946 7.25146 2.23125 6.47953 2.35714 5.96199C2.52321 5.28655 3.01071 4.75146 3.62679 4.5731C4.18929 4.40936 5.60625 4.27778 7.53214 4.19883C8.50714 4.15789 9.55714 4.13158 10.6045 4.11696C10.9714 4.11111 11.3116 4.10819 11.617 4.10819H12.383L13.3955 4.11696C14.4429 4.13158 15.4902 4.15789 16.4679 4.19883C18.3937 4.2807 19.8134 4.40936 20.3732 4.5731C20.9893 4.75439 21.4768 5.28655 21.6429 5.96199C21.7688 6.47953 21.8705 7.25146 21.9429 8.19298C21.9991 8.9152 22.0339 9.69298 22.0554 10.4708C22.0634 10.7427 22.0661 10.9971 22.0688 11.2222C22.0688 11.3012 22.0714 11.3713 22.0714 11.4298V11.5702ZM9.61607 15.4181L15.8304 11.4708L9.61607 7.58187V15.4181Z" fill="white"/>
</svg>
