<svg width="32" height="32" viewBox="0 0 32 32" fill="none" xmlns="http://www.w3.org/2000/svg">
<path d="M32 15.2245C32 15.1387 32 15.0413 31.9964 14.9282C31.9929 14.6124 31.9857 14.2576 31.9786 13.8795C31.95 12.7917 31.9 11.7079 31.8214 10.6865C31.7143 9.27908 31.5571 8.10559 31.3429 7.2245C31.1167 6.305 30.6735 5.4664 30.0574 4.79251C29.4413 4.11863 28.674 3.63306 27.8321 3.38434C26.8214 3.08804 24.8429 2.90481 22.0571 2.79175C20.7321 2.73717 19.3143 2.70208 17.8964 2.68259C17.4 2.67479 16.9393 2.67089 16.525 2.66699H15.475C15.0607 2.67089 14.6 2.67479 14.1036 2.68259C12.6857 2.70208 11.2679 2.73717 9.94286 2.79175C7.15714 2.90871 5.175 3.09194 4.16786 3.38434C3.32572 3.63245 2.5581 4.11781 1.94194 4.79179C1.32578 5.46578 0.882715 6.3047 0.657143 7.2245C0.439286 8.10559 0.285714 9.27908 0.178571 10.6865C0.1 11.7079 0.0499999 12.7917 0.0214285 13.8795C0.0107142 14.2576 0.0071428 14.6124 0.00357137 14.9282C0.00357137 15.0413 0 15.1387 0 15.2245V15.4428C0 15.5286 -5.45489e-08 15.6261 0.00357137 15.7391C0.0071428 16.0549 0.0142857 16.4097 0.0214285 16.7878C0.0499999 17.8756 0.1 18.9594 0.178571 19.9808C0.285714 21.3882 0.442857 22.5617 0.657143 23.4428C1.11429 25.3103 2.45714 26.784 4.16786 27.283C5.175 27.5793 7.15714 27.7625 9.94286 27.8756C11.2679 27.9301 12.6857 27.9652 14.1036 27.9847C14.6 27.9925 15.0607 27.9964 15.475 28.0003H16.525C16.9393 27.9964 17.4 27.9925 17.8964 27.9847C19.3143 27.9652 20.7321 27.9301 22.0571 27.8756C24.8429 27.7586 26.825 27.5754 27.8321 27.283C29.5429 26.784 30.8857 25.3142 31.3429 23.4428C31.5607 22.5617 31.7143 21.3882 31.8214 19.9808C31.9 18.9594 31.95 17.8756 31.9786 16.7878C31.9893 16.4097 31.9929 16.0549 31.9964 15.7391C31.9964 15.6261 32 15.5286 32 15.4428V15.2245ZM29.4286 15.4272C29.4286 15.5091 29.4286 15.5988 29.425 15.704C29.4214 16.0081 29.4143 16.3434 29.4071 16.706C29.3821 17.743 29.3321 18.7801 29.2571 19.743C29.1607 20.9984 29.025 22.0276 28.8571 22.7177C28.6357 23.6183 27.9857 24.3317 27.1643 24.5695C26.4143 24.7878 24.525 24.9633 21.9571 25.0685C20.6571 25.1231 19.2571 25.1582 17.8607 25.1777C17.3714 25.1855 16.9179 25.1894 16.5107 25.1894H15.4893L14.1393 25.1777C12.7429 25.1582 11.3464 25.1231 10.0429 25.0685C7.475 24.9594 5.58214 24.7878 4.83571 24.5695C4.01429 24.3278 3.36429 23.6183 3.14286 22.7177C2.975 22.0276 2.83929 20.9984 2.74286 19.743C2.66786 18.7801 2.62143 17.743 2.59286 16.706C2.58214 16.3434 2.57857 16.0042 2.575 15.704C2.575 15.5988 2.57143 15.5052 2.57143 15.4272V15.2401C2.57143 15.1582 2.57143 15.0686 2.575 14.9633C2.57857 14.6592 2.58571 14.3239 2.59286 13.9613C2.61786 12.9243 2.66786 11.8873 2.74286 10.9243C2.83929 9.66894 2.975 8.6397 3.14286 7.94964C3.36429 7.04906 4.01429 6.33561 4.83571 6.09779C5.58571 5.87947 7.475 5.70403 10.0429 5.59877C11.3429 5.54418 12.7429 5.5091 14.1393 5.4896C14.6286 5.48181 15.0821 5.47791 15.4893 5.47791H16.5107L17.8607 5.4896C19.2571 5.5091 20.6536 5.54418 21.9571 5.59877C24.525 5.70793 26.4179 5.87947 27.1643 6.09779C27.9857 6.33951 28.6357 7.04906 28.8571 7.94964C29.025 8.6397 29.1607 9.66894 29.2571 10.9243C29.3321 11.8873 29.3786 12.9243 29.4071 13.9613C29.4179 14.3239 29.4214 14.6631 29.425 14.9633C29.425 15.0686 29.4286 15.1621 29.4286 15.2401V15.4272ZM12.8214 20.5578L21.1071 15.2947L12.8214 10.1095V20.5578Z" fill="#27174D"/>
</svg>
